<?xml version="1.0" encoding="utf-8"?>
<!-- Generator: Fusion 360, Shaper Origin Export Add-In, Version 1.9.0  -->
<svg xmlns="http://www.w3.org/2000/svg" xmlns:xlink="http://www.w3.org/1999/xlink" xmlns:shaper="http://www.shapertools.com/namespaces/shaper" shaper:fusionaddin="version:1.9.0" width="9.35cm" height="5.75cm" version="1.1" x="0cm" y="0cm" viewBox="0 0 9.35 5.75" enable-background="new 0 0 9.35 5.75" xml:space="preserve"><path d="M-4.675,-1.5233422 A0.85,0.85 180 0,1 -3.825,-2.3733422 L3.825,-2.3733422 A0.85,0.85 270 0,1 4.675,-1.5233422 L4.675,2.5266578 A0.85,0.85 0 0,1 3.825,3.3766578 L-3.825,3.3766578 A0.85,0.85 90 0,1 -4.675,2.5266578 L-4.675,-1.5233422z" transform="matrix(1,0,0,-1,4.675,3.3766578)" fill="rgb(0,0,0)" shaper:cutDepth="0.5cm" stroke-linecap="round" stroke-linejoin="round" /><path d="M-0.3366076,0.0516578 A0.6,0.6 90 0,1 -0.7422465,-0.1062369 A0.825,0.825 312.5368984 1,0 -0.7422465,1.1095526 A0.6,0.6 227.4631016 0,1 -0.3366076,0.9516578 L1.1,0.9516578 A0.45,0.45 90 0,0 1.1,0.0516578 L-0.3366076,0.0516578z" transform="matrix(1,0,0,-1,4.675,3.3766578)" fill="rgb(255,255,255)" stroke="rgb(0,0,0)" stroke-width="0.0010cm" stroke-linecap="round" stroke-linejoin="round" shaper:cutDepth="0.5cm" /></svg>