<?xml version="1.0" encoding="utf-8"?>
<!-- Generator: Fusion 360, Shaper Origin Export Add-In, Version 1.9.0  -->
<svg xmlns="http://www.w3.org/2000/svg" xmlns:xlink="http://www.w3.org/1999/xlink" xmlns:shaper="http://www.shapertools.com/namespaces/shaper" shaper:fusionaddin="version:1.9.0" width="5.85cm" height="5.65cm" version="1.1" x="0cm" y="0cm" viewBox="0 0 5.85 5.65" enable-background="new 0 0 5.85 5.65" xml:space="preserve"><path d="M3.3204533,-1.6290781 A0.1,0.1 270 0,1 3.4204533,-1.5290781 L3.4204533,3.9209219 A0.1,0.1 0 0,1 3.3204533,4.0209219 L-2.3295467,4.0209219 A0.1,0.1 90 0,1 -2.4295467,3.9209219 L-2.4295467,-1.5290781 A0.1,0.1 180 0,1 -2.3295467,-1.6290781 L3.3204533,-1.6290781z" transform="matrix(1,0,0,-1,2.4295467,4.0209219)" fill="rgb(0,0,0)" shaper:cutDepth="0.5cm" stroke-linecap="round" stroke-linejoin="round" /><path d="M-0.0295467,1.9209219 L1.7204533,1.1959219 -0.0295467,0.4709219 -0.0295467,1.9209219z" transform="matrix(1,0,0,-1,2.4295467,4.0209219)" fill="rgb(255,255,255)" stroke="rgb(0,0,0)" stroke-width="0.0010cm" stroke-linecap="round" stroke-linejoin="round" shaper:cutDepth="0.5cm" /></svg>