<?xml version="1.0" encoding="utf-8"?>
<!-- Generator: Fusion 360, Shaper Origin Export Add-In, Version 1.9.0  -->
<svg xmlns="http://www.w3.org/2000/svg" xmlns:xlink="http://www.w3.org/1999/xlink" xmlns:shaper="http://www.shapertools.com/namespaces/shaper" shaper:fusionaddin="version:1.9.0" width="10.3cm" height="6.6cm" version="1.1" x="0cm" y="0cm" viewBox="0 0 10.3 6.6" enable-background="new 0 0 10.3 6.6" xml:space="preserve"><path d="M5.586052,-5.7928943 A1.1,1.1 270 0,1 6.686052,-4.6928943 L6.686052,-0.2928943 A1.1,1.1 0 0,1 5.586052,0.8071057 L-2.513948,0.8071057 A1.1,1.1 90 0,1 -3.613948,-0.2928943 L-3.613948,-4.6928943 A1.1,1.1 180 0,1 -2.513948,-5.7928943 L5.586052,-5.7928943z" transform="matrix(1,0,0,-1,3.613948,0.8071057)" fill="rgb(0,0,0)" shaper:cutDepth="0.5cm" stroke-linecap="round" stroke-linejoin="round" /><path d="M0.606756,-4.464399 A0.8,0.8 40.672699 0,1 -0.3763393,-4.2798363 A2.025,2.025 298.0618272 1,0 -0.3763393,-0.7059524 A0.8,0.8 241.9381728 0,1 0.606756,-0.5213897 A3.025,3.025 139.327301 1,0 0.606756,-4.464399z" transform="matrix(1,0,0,-1,3.613948,0.8071057)" fill="rgb(255,255,255)" stroke="rgb(0,0,0)" stroke-width="0.0010cm" stroke-linecap="round" stroke-linejoin="round" shaper:cutDepth="0.5cm" /></svg>