<?xml version="1.0" encoding="utf-8"?>
<!-- Generator: Fusion 360, Shaper Origin Export Add-In, Version 1.9.0  -->
<svg xmlns="http://www.w3.org/2000/svg" xmlns:xlink="http://www.w3.org/1999/xlink" xmlns:shaper="http://www.shapertools.com/namespaces/shaper" shaper:fusionaddin="version:1.9.0" width="9.7cm" height="5.85cm" version="1.1" x="0cm" y="0cm" viewBox="0 0 9.7 5.85" enable-background="new 0 0 9.7 5.85" xml:space="preserve"><path d="M-4.75,2.925 A0.1,0.1 90 0,1 -4.85,2.825 L-4.85,-2.825 A0.1,0.1 180 0,1 -4.75,-2.925 L4.75,-2.925 A0.1,0.1 270 0,1 4.85,-2.825 L4.85,2.825 A0.1,0.1 0 0,1 4.75,2.925 L-4.75,2.925z" transform="matrix(1,0,0,-1,4.85,2.925)" fill="rgb(0,0,0)" shaper:cutDepth="0.5cm" stroke-linecap="round" stroke-linejoin="round" /><path d="M3.45,1.325 a0.4,0.4 0 1,1 0.8,0 a0.4,0.4 0 1,1 -0.8,0z" transform="matrix(1,0,0,-1,4.85,2.925)" fill="rgb(255,255,255)" stroke="rgb(0,0,0)" stroke-width="0.0010cm" stroke-linecap="round" stroke-linejoin="round" shaper:cutDepth="0.5cm" /></svg>