<?xml version="1.0" encoding="utf-8"?>
<!-- Generator: Fusion 360, Shaper Origin Export Add-In, Version 1.9.0  -->
<svg xmlns="http://www.w3.org/2000/svg" xmlns:xlink="http://www.w3.org/1999/xlink" xmlns:shaper="http://www.shapertools.com/namespaces/shaper" shaper:fusionaddin="version:1.9.0" width="4.8187359cm" height="1.8258811cm" version="1.1" x="0cm" y="0cm" viewBox="0 0 4.8187359 1.8258811" enable-background="new 0 0 4.8187359 1.8258811" xml:space="preserve"><g id="Body_&#12508;&#12487;&#12451;3"><path d="M-1.4141621,0.0571077 L-1.559067,0.7039718 A0.2410111,0.2410111 12.6264596 0,1 -2.0037789,0.7703837 L-2.3514273,0.1587521 -2.3166522,0.1389861 -1.9690038,0.7506177 A0.2010111,0.2010111 150.3863103 0,0 -1.5980997,0.695228 L-1.4531947,0.0483639 A0.3332829,0.3332829 192.6264596 0,1 -0.8239138,-0.0152599 L-0.5366012,0.6248445 A0.3393048,0.3393048 155.8269377 0,0 0.1029037,0.5650144 L0.3831784,-0.6039096 A0.4299117,0.4299117 193.4833547 0,1 1.1869389,-0.6935675 L1.8972973,0.7492322 A0.005,0.005 153.7868008 0,0 1.9061102,0.7495288 L2.4326915,-0.1600207 2.4673086,-0.1399793 1.9407273,0.7695703 A0.045,0.045 30.0685828 0,1 1.861411,0.7669007 L1.1510526,-0.675899 A0.3899117,0.3899117 333.7868008 0,0 0.4220759,-0.594583 L0.1418012,0.5743409 A0.3793048,0.3793048 13.4833547 0,1 -0.5730937,0.6412242 L-0.8604063,0.0011199 A0.2932829,0.2932829 335.8269377 0,0 -1.4141621,0.0571077z" transform="matrix(1,0,0,-1,2.3514273,0.8922993)" fill="rgb(0,0,0)" shaper:cutDepth="0.1cm" stroke-linecap="round" stroke-linejoin="round" /></g></svg>