0
SECTION
2
HEADER
9
$INSUNITS
70
4
9
$ACADVER
1
AC1014
9
$HANDSEED
5
FFFF
0
ENDSEC
0
SECTION
2
TABLES
0
TABLE
2
VPORT
5
8
100
AcDbSymbolTable
0
ENDTAB
0
TABLE
2
LTYPE
5
5
100
AcDbSymbolTable
0
LTYPE
5
14
100
AcDbSymbolTableRecord
100
AcDbLinetypeTableRecord
2
BYBLOCK
70
0
0
LTYPE
5
15
100
AcDbSymbolTableRecord
100
AcDbLinetypeTableRecord
2
BYLAYER
70
0
0
LTYPE
5
16
100
AcDbSymbolTableRecord
100
AcDbLinetypeTableRecord
2
DASHED
70
0
3
Dashed __ __ __ __ __ __ __ __ __ __ __ __ __ _
72
65
73
2
40
0.75
49
0.5
74
0
49
-0.25
74
0
0
ENDTAB
0
TABLE
2
LAYER
5
2
100
AcDbSymbolTable
70
2
0
LAYER
5
50
100
AcDbSymbolTableRecord
100
AcDbLayerTableRecord
2
0
70
0
62
7
6
CONTINUOUS
0
ENDTAB
0
TABLE
2
STYLE
5
3
100
AcDbSymbolTable
70
1
0
STYLE
5
11
100
AcDbSymbolTableRecord
100
AcDbTextStyleTableRecord
2
STANDARD
70
0
0
ENDTAB
0
TABLE
2
VIEW
5
6
100
AcDbSymbolTable
70
0
0
ENDTAB
0
TABLE
2
UCS
5
7
100
AcDbSymbolTable
70
0
0
ENDTAB
0
TABLE
2
APPID
5
9
100
AcDbSymbolTable
70
2
0
APPID
5
12
100
AcDbSymbolTableRecord
100
AcDbRegAppTableRecord
2
ACAD
70
0
0
ENDTAB
0
TABLE
2
DIMSTYLE
5
A
100
AcDbSymbolTable
70
1
0
ENDTAB
0
TABLE
2
BLOCK_RECORD
5
1
100
AcDbSymbolTable
70
1
0
BLOCK_RECORD
5
1F
100
AcDbSymbolTableRecord
100
AcDbBlockTableRecord
2
*MODEL_SPACE
0
BLOCK_RECORD
5
1B
100
AcDbSymbolTableRecord
100
AcDbBlockTableRecord
2
*PAPER_SPACE
0
ENDTAB
0
ENDSEC
0
SECTION
2
BLOCKS
0
BLOCK
5
20
100
AcDbEntity
100
AcDbBlockBegin
2
*MODEL_SPACE
0
ENDBLK
5
21
100
AcDbEntity
100
AcDbBlockEnd
0
BLOCK
5
1C
100
AcDbEntity
100
AcDbBlockBegin
2
*PAPER_SPACE
0
ENDBLK
5
1D
100
AcDbEntity
100
AcDbBlockEnd
0
ENDSEC
0
SECTION
2
ENTITIES
0
LWPOLYLINE
5
100
100
AcDbEntity
8
OUTER_PROFILES
100
AcDbPolyline
90
18
70
1
43
0.0
10
120.48770648420521
20
17.582377282749199
10
103.42736942769379
20
18.327247684973258
42
1.2701069150235609
10
101.79990182808423
20
17.263709587805941
10
109.84350905075439
20
17.263709587805955
10
109.84350905075439
20
1.6875389974302379e-12
10
-1.3322676295501878e-14
20
-1.8041124150158794e-14
42
-0.092486442282456435
10
-5.7000000000027429
20
1.4365793401965576
10
-5.7000000000029623
20
16.037821138194193
42
-0.42705195776670241
10
0.24863050797949376
20
21.732396001210986
10
3.4455069776468363
20
94.952905149796976
42
-0.42705195776669425
10
-1.9841722934937729
20
101.14426774647524
10
-0.71159021955108814
20
115.68994741119597
42
-0.092486442282456546
10
5.0919256989853343
20
116.62427239962624
10
114.51744703513941
20
107.05077978230025
10
113.01281560343499
20
89.852763821534097
10
104.99981673467849
20
90.553810383396112
42
1.2701069150235722
10
106.52839787592661
20
89.352476222337756
10
123.5887349324379
20
88.607605820113633
0
LWPOLYLINE
5
101
100
AcDbEntity
8
INTERIOR_PROFILES
100
AcDbPolyline
90
4
70
1
43
0.0
10
25.453625519088632
20
25.882051733700607
10
25.340215111938793
20
23.284526357587787
10
41.32498665724853
20
22.586616159742654
10
41.438397064398373
20
25.184141535855478
0
LWPOLYLINE
5
102
100
AcDbEntity
8
INTERIOR_PROFILES
100
AcDbPolyline
90
3
70
1
43
0.0
10
14.320353014923715
20
85.023968259460219
10
13.884159141270507
20
75.033486043641631
10
24.310835230742303
20
84.587774385806995
0
LWPOLYLINE
5
103
100
AcDbEntity
8
INTERIOR_PROFILES
100
AcDbPolyline
90
3
70
1
43
0.0
10
97.168679611284034
20
26.954906128987446
10
97.604873484937244
20
36.945388344806027
10
87.178197395465446
20
27.391100002640655
0
CIRCLE
5
104
100
AcDbEntity
8
INTERIOR_PROFILES
100
AcDbCircle
10
-33.416992544799953
20
56.964277934759863
30
0
40
3.9999999999999956
210
0
220
0
230
-1
0
LWPOLYLINE
5
105
100
AcDbEntity
8
INTERIOR_PROFILES
100
AcDbPolyline
90
3
70
1
43
0.0
10
89.5510920681389
20
81.739323256693766
10
99.105380410304278
20
71.312647167221982
10
99.541574283957488
20
81.30312938304057
0
LWPOLYLINE
5
106
100
AcDbEntity
8
INTERIOR_PROFILES
100
AcDbPolyline
90
3
70
1
43
0.0
10
21.937940558068849
20
30.239551131753892
10
12.383652215903469
20
40.666227221225675
10
11.947458342250261
20
30.675745005407098
0
CIRCLE
5
107
100
AcDbEntity
8
INTERIOR_PROFILES
100
AcDbCircle
10
-81.371307180729175
20
54.870547341224466
30
0
40
3.9999999999999956
210
0
220
0
230
-1
0
LWPOLYLINE
5
108
100
AcDbEntity
8
INTERIOR_PROFILES
100
AcDbPolyline
90
3
70
1
43
0.0
10
4.7595042926903197
20
100.60096509347386
10
4.6941374856295859
20
99.103819069905072
42
2.3416354422763423
10
3.195565153256803
20
100.66924815095304
0
LWPOLYLINE
5
109
100
AcDbEntity
8
INTERIOR_PROFILES
100
AcDbPolyline
90
3
70
1
43
0.0
10
1.0653668070579059
20
15.991306218854584
10
-0.49857233237562959
20
16.05958927633376
42
2.341635442276305
10
1.1307336141186306
20
17.488452242423392
0
LINE
5
110
100
AcDbEntity
8
BEND
100
AcDbLine
10
105.57549540753635
20
88.769606182021832
30
7.8911881485961398e-13
11
102.52889351217397
21
18.990950651211111
31
7.5894988491109962e-13
0
LINE
5
111
100
AcDbEntity
8
BEND
100
AcDbLine
10
108.01970105884112
20
107.61925889369735
30
1.3536089084161299e-12
11
106.5150696271367
21
90.421242932931193
31
8.2233525526338941e-13
0
LINE
5
112
100
AcDbEntity
8
BEND
100
AcDbLine
10
3.4139890778596005
20
94.231026562491195
30
-1.7894378705831396e-13
11
104.62006657331982
21
89.812273790969016
31
8.3175653494101368e-13
0
LINE
5
113
100
AcDbEntity
8
BEND
100
AcDbLine
10
101.4862259032268
20
18.035521816994581
30
7.6337896693641694e-13
11
0.28014840776672045
21
22.454274588516796
31
-2.4710048477539303e-13
0
LINE
5
114
100
AcDbEntity
8
BEND
100
AcDbLine
10
103.32094274042879
20
17.263709587805948
30
7.9453530769213475e-13
11
103.32094274042879
21
1.6875389974302379e-12
31
9.5425022381402457e-13
0
LINE
5
115
100
AcDbEntity
8
BEND_EXTENT
100
AcDbLine
10
101.81496562027078
20
18.744423419505971
30
7.598087807267734e-13
11
104.88577049078935
21
89.077418218868814
31
7.9021738027673592e-13
0
LINE
5
116
100
AcDbEntity
8
BEND_EXTENT
100
AcDbLine
10
104.88577049078935
20
89.077418218868814
30
7.9021738027673592e-13
11
3.3824711780725281
21
93.5091479751854
31
-2.1491753123561529e-13
0
LINE
5
117
100
AcDbEntity
8
BEND_EXTENT
100
AcDbLine
10
0.31166630755393498
20
23.176153175822598
30
-2.4588124229789046e-13
11
101.81496562027078
21
18.744423419505971
31
7.598087807267734e-13
0
LINE
5
118
100
AcDbEntity
8
BEND_EXTENT
100
AcDbLine
10
108.73951778620724
20
107.55628309023651
30
1.3876539041973762e-12
11
107.23488635450282
21
90.358267129470349
31
8.4872904620428286e-13
0
LINE
5
119
100
AcDbEntity
8
BEND_EXTENT
100
AcDbLine
10
105.79525289977055
20
90.484218736392052
30
7.5897793165982991e-13
11
107.29988433147498
21
107.68223469715819
31
1.3689570632289333e-12
0
LINE
5
120
100
AcDbEntity
8
BEND_EXTENT
100
AcDbLine
10
104.04350905075439
20
17.263709587805948
30
7.9936291153385769e-13
11
104.04350905075439
21
1.6875389974302379e-12
31
9.6811681127688149e-13
0
LINE
5
121
100
AcDbEntity
8
BEND_EXTENT
100
AcDbLine
10
102.59837643010307
20
17.263709587805948
30
1.0559601618460996e-13
11
102.59837643010312
21
1.6697754290362354e-12
31
9.4492462280122874e-13
0
LINE
5
122
100
AcDbEntity
8
BEND_EXTENT
100
AcDbLine
10
106.28989777610998
20
89.02700071614484
30
8.2160774247010439e-13
11
103.21814395225053
21
18.672271311946265
31
7.9118974592380029e-13
0
LINE
5
123
100
AcDbEntity
8
BEND_EXTENT
100
AcDbLine
10
3.4455069776468328
20
94.952905149796976
30
-1.5239838654517941e-13
11
104.95998904255325
21
90.520687143975493
31
8.0642937308333091e-13
0
LINE
5
124
100
AcDbEntity
8
BEND_EXTENT
100
AcDbLine
10
101.76311257288577
20
17.300177995389461
30
8.0673864170357059e-13
11
0.24863050797948816
21
21.732396001210994
31
-2.3734611341231768e-13
0
ENDSEC
0
SECTION
2
OBJECTS
0
DICTIONARY
5
C
100
AcDbDictionary
3
ACAD_GROUP
350
D
3
ACAD_MLINESTYLE
350
17
0
DICTIONARY
5
D
100
AcDbDictionary
0
DICTIONARY
5
1A
330
C
100
AcDbDictionary
0
DICTIONARY
5
17
100
AcDbDictionary
0
ENDSEC
0
EOF
