<?xml version="1.0" encoding="utf-8"?>
<!-- Generator: Fusion 360, Shaper Origin Export Add-In, Version 1.9.0  -->
<svg xmlns="http://www.w3.org/2000/svg" xmlns:xlink="http://www.w3.org/1999/xlink" xmlns:shaper="http://www.shapertools.com/namespaces/shaper" shaper:fusionaddin="version:1.9.0" width="9.76cm" height="6.64cm" version="1.1" x="0cm" y="0cm" viewBox="0 0 9.76 6.64" enable-background="new 0 0 9.76 6.64" xml:space="preserve"><path d="M3.2214214,-3.2614214 A0.2,0.2 225 0,1 3.3628427,-3.32 L4.28,-3.32 A0.6,0.6 270 0,1 4.88,-2.72 L4.88,2.72 A0.6,0.6 0 0,1 4.28,3.32 L-4.28,3.32 A0.6,0.6 90 0,1 -4.88,2.72 L-4.88,-2.72 A0.6,0.6 180 0,1 -4.28,-3.32 L0.1971573,-3.32 A0.2,0.2 270 0,1 0.3385786,-3.2614214 L0.6614214,-2.9385786 A0.2,0.2 135 0,0 0.8028427,-2.88 L2.7571573,-2.88 A0.2,0.2 90 0,0 2.8985786,-2.9385786 L3.2214214,-3.2614214z" transform="matrix(1,0,0,-1,4.88,3.32)" fill="rgb(0,0,0)" shaper:cutDepth="0.1cm" stroke-linecap="round" stroke-linejoin="round" /></svg>