ISO-10303-21;
HEADER;
/* Generated by software containing ST-Developer
 * from STEP Tools, Inc. (www.steptools.com) 
 */

FILE_DESCRIPTION(
/* description */ (''),
/* implementation_level */ '2;1');

FILE_NAME(
/* name */ 'FilmClaw.step',
/* time_stamp */ '2026-09-05T20:21:36+09:00',
/* author */ (''),
/* organization */ (''),
/* preprocessor_version */ 'ST-DEVELOPER v20.2',
/* originating_system */ 'Autodesk Translation Framework v15.15.0.0',
/* authorisation */ '');

FILE_SCHEMA (('AUTOMOTIVE_DESIGN { 1 0 10303 214 3 1 1 }'));
ENDSEC;

DATA;
#10=MECHANICAL_DESIGN_GEOMETRIC_PRESENTATION_REPRESENTATION('',(#17),#717);
#11=ITEM_DEFINED_TRANSFORMATION($,$,#277,#311);
#12=(
REPRESENTATION_RELATIONSHIP($,$,#728,#727)
REPRESENTATION_RELATIONSHIP_WITH_TRANSFORMATION(#11)
SHAPE_REPRESENTATION_RELATIONSHIP()
);
#13=CONTEXT_DEPENDENT_SHAPE_REPRESENTATION(#12,#726);
#14=NEXT_ASSEMBLY_USAGE_OCCURRENCE('\X2\30B330F330DD30FC30CD30F330C8\X0\4
:1','\X2\30B330F330DD30FC30CD30F330C8\X0\4:1',
'\X2\30B330F330DD30FC30CD30F330C8\X0\4:1',#730,#731,
'\X2\30B330F330DD30FC30CD30F330C8\X0\4:1');
#15=SHAPE_REPRESENTATION_RELATIONSHIP('SRR','None',#728,#16);
#16=ADVANCED_BREP_SHAPE_REPRESENTATION('',(#18),#716);
#17=STYLED_ITEM('',(#741),#18);
#18=MANIFOLD_SOLID_BREP('\X2\30DC30C730A3\X0\1',#263);
#19=ELLIPSE('',#289,0.205469757303368,0.2);
#20=ELLIPSE('',#292,0.231057040466595,0.20000000000051);
#21=ELLIPSE('',#298,0.282595299113984,0.200000000031844);
#22=ELLIPSE('',#305,0.282839908379117,0.2000000000209);
#23=ELLIPSE('',#306,0.282839908379117,0.2000000000209);
#24=(
BOUNDED_SURFACE()
B_SPLINE_SURFACE(2,2,((#579,#580,#581),(#582,#583,#584),(#585,#586,#587),
(#588,#589,#590),(#591,#592,#593),(#594,#595,#596),(#597,#598,#599)),
 .UNSPECIFIED.,.F.,.F.,.F.)
B_SPLINE_SURFACE_WITH_KNOTS((3,2,2,3),(3,3),(-2.09439510239319,-0.69813170079773,
0.69813170079773,2.09439510239319),(-3.14159265358979,-2.67908040181047),
 .UNSPECIFIED.)
GEOMETRIC_REPRESENTATION_ITEM()
RATIONAL_B_SPLINE_SURFACE(((1.,0.973379258460353,1.),(0.766044443119036,
0.745651771990882,0.766044443119036),(1.,0.973379258460353,1.),(0.766044443118956,
0.745651771990804,0.766044443118956),(1.,0.973379258460353,1.),(0.766044443119036,
0.745651771990882,0.766044443119036),(1.,0.973379258460353,1.)))
REPRESENTATION_ITEM('')
SURFACE()
);
#25=(
BOUNDED_SURFACE()
B_SPLINE_SURFACE(2,2,((#619,#620,#621),(#622,#623,#624),(#625,#626,#627),
(#628,#629,#630),(#631,#632,#633),(#634,#635,#636),(#637,#638,#639)),
 .UNSPECIFIED.,.F.,.F.,.F.)
B_SPLINE_SURFACE_WITH_KNOTS((3,2,2,3),(3,3),(-2.09439510239326,-0.698131700797753,
0.698131700797753,2.09439510239326),(-3.14159265358979,-2.09264332675102),
 .UNSPECIFIED.)
GEOMETRIC_REPRESENTATION_ITEM()
RATIONAL_B_SPLINE_SURFACE(((1.,0.865587127731455,1.),(0.766044443118969,
0.66307820923399,0.766044443118969),(1.,0.865587127731455,1.),(0.766044443118962,
0.663078209233984,0.766044443118962),(1.,0.865587127731455,1.),(0.766044443119054,
0.663078209234063,0.766044443119054),(1.,0.865587127731455,1.)))
REPRESENTATION_ITEM('')
SURFACE()
);
#26=(
BOUNDED_SURFACE()
B_SPLINE_SURFACE(2,2,((#651,#652,#653),(#654,#655,#656),(#657,#658,#659),
(#660,#661,#662),(#663,#664,#665),(#666,#667,#668),(#669,#670,#671)),
 .UNSPECIFIED.,.F.,.F.,.F.)
B_SPLINE_SURFACE_WITH_KNOTS((3,2,2,3),(3,3),(-2.09439510239355,-0.698131700797849,
0.698131700797849,2.09439510239355),(-3.14159265358979,-1.57254810236605),
 .UNSPECIFIED.)
GEOMETRIC_REPRESENTATION_ITEM()
RATIONAL_B_SPLINE_SURFACE(((1.,0.707725856061231,1.),(0.766044443118953,
0.54214945928731,0.766044443118953),(1.,0.707725856061231,1.),(0.766044443118908,
0.542149459287278,0.766044443118908),(1.,0.707725856061231,1.),(0.766044443118877,
0.542149459287256,0.766044443118877),(1.,0.707725856061231,1.)))
REPRESENTATION_ITEM('')
SURFACE()
);
#27=(
BOUNDED_SURFACE()
B_SPLINE_SURFACE(2,2,((#675,#676,#677),(#678,#679,#680),(#681,#682,#683),
(#684,#685,#686),(#687,#688,#689),(#690,#691,#692),(#693,#694,#695)),
 .UNSPECIFIED.,.F.,.F.,.F.)
B_SPLINE_SURFACE_WITH_KNOTS((3,2,2,3),(3,3),(-2.09439510237839,-0.698131700792797,
0.698131700792797,2.09439510237839),(-3.14159265358986,-1.57081615490016),
 .UNSPECIFIED.)
GEOMETRIC_REPRESENTATION_ITEM()
RATIONAL_B_SPLINE_SURFACE(((1.,0.707113791445617,1.),(0.766044443122175,
0.541680590591967,0.766044443122175),(1.,0.707113791445617,1.),(0.766044443122206,
0.541680590591989,0.766044443122206),(1.,0.707113791445617,1.),(0.766044443122155,
0.541680590591953,0.766044443122155),(1.,0.707113791445617,1.)))
REPRESENTATION_ITEM('')
SURFACE()
);
#28=PLANE('',#283);
#29=PLANE('',#307);
#30=PLANE('',#310);
#31=CIRCLE('',#280,0.2);
#32=CIRCLE('',#281,0.2);
#33=CIRCLE('',#282,0.1);
#34=CIRCLE('',#284,0.2);
#35=CIRCLE('',#285,0.2);
#36=CIRCLE('',#286,0.2);
#37=CIRCLE('',#287,0.2);
#38=CIRCLE('',#291,0.2);
#39=CIRCLE('',#293,0.2);
#40=CIRCLE('',#294,0.2);
#41=CIRCLE('',#295,0.2);
#42=CIRCLE('',#297,0.2);
#43=CIRCLE('',#299,0.2);
#44=CIRCLE('',#300,0.2);
#45=CIRCLE('',#301,0.2);
#46=CIRCLE('',#302,0.2);
#47=CIRCLE('',#303,0.2);
#48=CIRCLE('',#308,0.2);
#49=TOROIDAL_SURFACE('',#279,0.3,0.2);
#50=B_SPLINE_SURFACE_WITH_KNOTS('',3,3,((#463,#464,#465,#466,#467,#468,
#469,#470,#471),(#472,#473,#474,#475,#476,#477,#478,#479,#480),(#481,#482,
#483,#484,#485,#486,#487,#488,#489),(#490,#491,#492,#493,#494,#495,#496,
#497,#498),(#499,#500,#501,#502,#503,#504,#505,#506,#507)),
 .UNSPECIFIED.,.F.,.F.,.F.,(4,1,4),(4,1,1,1,1,1,4),(0.,0.571428571428571,
1.),(0.0476604089405985,0.0550859498531794,0.0625114907657603,0.0674618513741476,
0.0724122119825349,0.0748873922867285,0.0823129331993094),.UNSPECIFIED.);
#51=FACE_OUTER_BOUND('',#66,.T.);
#52=FACE_OUTER_BOUND('',#67,.T.);
#53=FACE_OUTER_BOUND('',#68,.T.);
#54=FACE_OUTER_BOUND('',#69,.T.);
#55=FACE_OUTER_BOUND('',#70,.T.);
#56=FACE_OUTER_BOUND('',#71,.T.);
#57=FACE_OUTER_BOUND('',#72,.T.);
#58=FACE_OUTER_BOUND('',#73,.T.);
#59=FACE_OUTER_BOUND('',#74,.T.);
#60=FACE_OUTER_BOUND('',#75,.T.);
#61=FACE_OUTER_BOUND('',#76,.T.);
#62=FACE_OUTER_BOUND('',#77,.T.);
#63=FACE_OUTER_BOUND('',#78,.T.);
#64=FACE_OUTER_BOUND('',#79,.T.);
#65=FACE_OUTER_BOUND('',#80,.T.);
#66=EDGE_LOOP('',(#166,#167,#168,#169));
#67=EDGE_LOOP('',(#170,#171,#172,#173,#174,#175,#176));
#68=EDGE_LOOP('',(#177,#178,#179,#180,#181,#182,#183));
#69=EDGE_LOOP('',(#184,#185));
#70=EDGE_LOOP('',(#186,#187,#188,#189));
#71=EDGE_LOOP('',(#190,#191,#192,#193,#194,#195,#196));
#72=EDGE_LOOP('',(#197,#198,#199,#200,#201,#202,#203,#204));
#73=EDGE_LOOP('',(#205,#206,#207,#208));
#74=EDGE_LOOP('',(#209,#210,#211,#212,#213,#214,#215,#216));
#75=EDGE_LOOP('',(#217,#218,#219,#220));
#76=EDGE_LOOP('',(#221,#222));
#77=EDGE_LOOP('',(#223,#224,#225,#226,#227,#228,#229,#230));
#78=EDGE_LOOP('',(#231));
#79=EDGE_LOOP('',(#232,#233,#234,#235,#236,#237));
#80=EDGE_LOOP('',(#238,#239,#240,#241));
#81=B_SPLINE_CURVE_WITH_KNOTS('',3,(#398,#399,#400,#401,#402,#403,#404,
#405,#406,#407,#408,#409,#410,#411),.UNSPECIFIED.,.F.,.F.,(4,2,2,2,2,2,
4),(-0.0246073087097481,-0.0207956348497815,-0.0165779731128915,-0.0115739473401837,
-0.00603882619439081,0.,0.000138507533289432),.UNSPECIFIED.);
#82=B_SPLINE_CURVE_WITH_KNOTS('',3,(#414,#415,#416,#417,#418,#419,#420,
#421,#422,#423,#424,#425,#426,#427,#428,#429,#430,#431,#432,#433,#434,#435,
#436,#437,#438,#439,#440,#441,#442,#443,#444,#445,#446,#447,#448,#449,#450,
#451,#452,#453,#454,#455,#456,#457,#458,#459,#460,#461,#462),
 .UNSPECIFIED.,.F.,.F.,(4,3,3,3,3,3,3,3,3,3,3,3,3,3,3,3,4),(-0.0192486205245516,
-0.0191408674258888,-0.0190229072119981,-0.0172544275619781,-0.0167583086495607,
-0.0149334179551783,-0.0144435645950918,-0.0125215998651896,-0.0106196175603427,
-0.0101380498835871,-0.0100023693075577,-0.00812400791197367,-0.00624564651638959,
-0.00425740244093399,-0.00296492387335604,-0.00118994958678281,0.),
 .UNSPECIFIED.);
#83=B_SPLINE_CURVE_WITH_KNOTS('',3,(#508,#509,#510,#511,#512,#513,#514,
#515,#516,#517,#518,#519,#520,#521,#522,#523,#524,#525,#526,#527,#528,#529),
 .UNSPECIFIED.,.F.,.F.,(4,3,3,3,3,3,3,4),(-0.0721447309852897,-0.0684431257518491,
-0.0674594101143866,-0.0649865518225953,-0.0625066733297,-0.0597841819137027,
-0.0579160018695531,-0.0578290228962763),.UNSPECIFIED.);
#84=B_SPLINE_CURVE_WITH_KNOTS('',3,(#531,#532,#533,#534),.UNSPECIFIED.,
 .F.,.F.,(4,4),(0.0158155379264534,0.0160932557960175),.UNSPECIFIED.);
#85=B_SPLINE_CURVE_WITH_KNOTS('',3,(#536,#537,#538,#539,#540,#541),
 .UNSPECIFIED.,.F.,.F.,(4,1,1,4),(0.0476604089405985,0.0550859498531794,
0.0625114907657603,0.0649865518225953),.UNSPECIFIED.);
#86=B_SPLINE_CURVE_WITH_KNOTS('',3,(#543,#544,#545,#546,#547,#548,#549),
 .UNSPECIFIED.,.F.,.F.,(4,1,1,1,4),(0.0649865518225953,0.0674618513741476,
0.0724122119825349,0.0748873922867285,0.0823129331993094),.UNSPECIFIED.);
#87=B_SPLINE_CURVE_WITH_KNOTS('',3,(#550,#551,#552,#553),.UNSPECIFIED.,
 .F.,.F.,(4,4),(0.,0.00027756766976888),.UNSPECIFIED.);
#88=B_SPLINE_CURVE_WITH_KNOTS('',3,(#560,#561,#562,#563,#564,#565,#566,
#567,#568,#569,#570,#571,#572,#573,#574,#575,#576,#577),.UNSPECIFIED.,.F.,
 .F.,(4,2,2,2,2,2,2,2,4),(0.00976611194253044,0.0261291265708487,0.0345957257316617,
0.0413328910744188,0.0474562077112551,0.0535795243480915,0.0603166896908481,
0.0687832888516611,0.0851463034799788),.UNSPECIFIED.);
#89=LINE('',#396,#96);
#90=LINE('',#413,#97);
#91=LINE('',#610,#98);
#92=LINE('',#618,#99);
#93=LINE('',#650,#100);
#94=LINE('',#703,#101);
#95=LINE('',#709,#102);
#96=VECTOR('',#318,10.);
#97=VECTOR('',#319,10.);
#98=VECTOR('',#342,0.2);
#99=VECTOR('',#351,0.2);
#100=VECTOR('',#364,0.2);
#101=VECTOR('',#377,0.2);
#102=VECTOR('',#386,0.2);
#103=VERTEX_POINT('',#394);
#104=VERTEX_POINT('',#395);
#105=VERTEX_POINT('',#397);
#106=VERTEX_POINT('',#412);
#107=VERTEX_POINT('',#530);
#108=VERTEX_POINT('',#535);
#109=VERTEX_POINT('',#542);
#110=VERTEX_POINT('',#555);
#111=VERTEX_POINT('',#556);
#112=VERTEX_POINT('',#600);
#113=VERTEX_POINT('',#601);
#114=VERTEX_POINT('',#603);
#115=VERTEX_POINT('',#605);
#116=VERTEX_POINT('',#612);
#117=VERTEX_POINT('',#613);
#118=VERTEX_POINT('',#615);
#119=VERTEX_POINT('',#640);
#120=VERTEX_POINT('',#644);
#121=VERTEX_POINT('',#645);
#122=VERTEX_POINT('',#647);
#123=VERTEX_POINT('',#672);
#124=VERTEX_POINT('',#696);
#125=VERTEX_POINT('',#697);
#126=VERTEX_POINT('',#701);
#127=VERTEX_POINT('',#706);
#128=EDGE_CURVE('',#103,#104,#89,.T.);
#129=EDGE_CURVE('',#104,#105,#81,.T.);
#130=EDGE_CURVE('',#105,#106,#90,.T.);
#131=EDGE_CURVE('',#106,#103,#82,.T.);
#132=EDGE_CURVE('',#106,#105,#83,.T.);
#133=EDGE_CURVE('',#104,#107,#84,.T.);
#134=EDGE_CURVE('',#107,#108,#85,.T.);
#135=EDGE_CURVE('',#108,#109,#86,.T.);
#136=EDGE_CURVE('',#109,#103,#87,.T.);
#137=EDGE_CURVE('',#110,#111,#31,.T.);
#138=EDGE_CURVE('',#111,#110,#32,.T.);
#139=EDGE_CURVE('',#111,#108,#33,.T.);
#140=EDGE_CURVE('',#109,#107,#88,.T.);
#141=EDGE_CURVE('',#112,#113,#34,.T.);
#142=EDGE_CURVE('',#113,#114,#35,.T.);
#143=EDGE_CURVE('',#115,#114,#36,.T.);
#144=EDGE_CURVE('',#112,#115,#37,.T.);
#145=EDGE_CURVE('',#112,#114,#19,.T.);
#146=EDGE_CURVE('',#113,#110,#91,.T.);
#147=EDGE_CURVE('',#116,#117,#38,.T.);
#148=EDGE_CURVE('',#116,#118,#20,.T.);
#149=EDGE_CURVE('',#117,#118,#39,.T.);
#150=EDGE_CURVE('',#117,#115,#92,.T.);
#151=EDGE_CURVE('',#119,#118,#40,.T.);
#152=EDGE_CURVE('',#116,#119,#41,.T.);
#153=EDGE_CURVE('',#120,#121,#42,.T.);
#154=EDGE_CURVE('',#120,#122,#21,.T.);
#155=EDGE_CURVE('',#121,#122,#43,.T.);
#156=EDGE_CURVE('',#121,#119,#93,.T.);
#157=EDGE_CURVE('',#123,#122,#44,.T.);
#158=EDGE_CURVE('',#120,#123,#45,.T.);
#159=EDGE_CURVE('',#124,#125,#46,.T.);
#160=EDGE_CURVE('',#124,#125,#47,.T.);
#161=EDGE_CURVE('',#124,#126,#22,.T.);
#162=EDGE_CURVE('',#126,#123,#94,.T.);
#163=EDGE_CURVE('',#126,#125,#23,.T.);
#164=EDGE_CURVE('',#127,#127,#48,.T.);
#165=EDGE_CURVE('',#127,#126,#95,.T.);
#166=ORIENTED_EDGE('',*,*,#128,.T.);
#167=ORIENTED_EDGE('',*,*,#129,.T.);
#168=ORIENTED_EDGE('',*,*,#130,.T.);
#169=ORIENTED_EDGE('',*,*,#131,.T.);
#170=ORIENTED_EDGE('',*,*,#132,.T.);
#171=ORIENTED_EDGE('',*,*,#129,.F.);
#172=ORIENTED_EDGE('',*,*,#133,.T.);
#173=ORIENTED_EDGE('',*,*,#134,.T.);
#174=ORIENTED_EDGE('',*,*,#135,.T.);
#175=ORIENTED_EDGE('',*,*,#136,.T.);
#176=ORIENTED_EDGE('',*,*,#131,.F.);
#177=ORIENTED_EDGE('',*,*,#137,.F.);
#178=ORIENTED_EDGE('',*,*,#138,.F.);
#179=ORIENTED_EDGE('',*,*,#139,.T.);
#180=ORIENTED_EDGE('',*,*,#134,.F.);
#181=ORIENTED_EDGE('',*,*,#140,.F.);
#182=ORIENTED_EDGE('',*,*,#135,.F.);
#183=ORIENTED_EDGE('',*,*,#139,.F.);
#184=ORIENTED_EDGE('',*,*,#130,.F.);
#185=ORIENTED_EDGE('',*,*,#132,.F.);
#186=ORIENTED_EDGE('',*,*,#141,.T.);
#187=ORIENTED_EDGE('',*,*,#142,.T.);
#188=ORIENTED_EDGE('',*,*,#143,.F.);
#189=ORIENTED_EDGE('',*,*,#144,.F.);
#190=ORIENTED_EDGE('',*,*,#141,.F.);
#191=ORIENTED_EDGE('',*,*,#145,.T.);
#192=ORIENTED_EDGE('',*,*,#142,.F.);
#193=ORIENTED_EDGE('',*,*,#146,.T.);
#194=ORIENTED_EDGE('',*,*,#137,.T.);
#195=ORIENTED_EDGE('',*,*,#138,.T.);
#196=ORIENTED_EDGE('',*,*,#146,.F.);
#197=ORIENTED_EDGE('',*,*,#147,.F.);
#198=ORIENTED_EDGE('',*,*,#148,.T.);
#199=ORIENTED_EDGE('',*,*,#149,.F.);
#200=ORIENTED_EDGE('',*,*,#150,.T.);
#201=ORIENTED_EDGE('',*,*,#143,.T.);
#202=ORIENTED_EDGE('',*,*,#145,.F.);
#203=ORIENTED_EDGE('',*,*,#144,.T.);
#204=ORIENTED_EDGE('',*,*,#150,.F.);
#205=ORIENTED_EDGE('',*,*,#147,.T.);
#206=ORIENTED_EDGE('',*,*,#149,.T.);
#207=ORIENTED_EDGE('',*,*,#151,.F.);
#208=ORIENTED_EDGE('',*,*,#152,.F.);
#209=ORIENTED_EDGE('',*,*,#153,.F.);
#210=ORIENTED_EDGE('',*,*,#154,.T.);
#211=ORIENTED_EDGE('',*,*,#155,.F.);
#212=ORIENTED_EDGE('',*,*,#156,.T.);
#213=ORIENTED_EDGE('',*,*,#151,.T.);
#214=ORIENTED_EDGE('',*,*,#148,.F.);
#215=ORIENTED_EDGE('',*,*,#152,.T.);
#216=ORIENTED_EDGE('',*,*,#156,.F.);
#217=ORIENTED_EDGE('',*,*,#153,.T.);
#218=ORIENTED_EDGE('',*,*,#155,.T.);
#219=ORIENTED_EDGE('',*,*,#157,.F.);
#220=ORIENTED_EDGE('',*,*,#158,.F.);
#221=ORIENTED_EDGE('',*,*,#159,.T.);
#222=ORIENTED_EDGE('',*,*,#160,.F.);
#223=ORIENTED_EDGE('',*,*,#161,.T.);
#224=ORIENTED_EDGE('',*,*,#162,.T.);
#225=ORIENTED_EDGE('',*,*,#157,.T.);
#226=ORIENTED_EDGE('',*,*,#154,.F.);
#227=ORIENTED_EDGE('',*,*,#158,.T.);
#228=ORIENTED_EDGE('',*,*,#162,.F.);
#229=ORIENTED_EDGE('',*,*,#163,.T.);
#230=ORIENTED_EDGE('',*,*,#159,.F.);
#231=ORIENTED_EDGE('',*,*,#164,.T.);
#232=ORIENTED_EDGE('',*,*,#164,.F.);
#233=ORIENTED_EDGE('',*,*,#165,.T.);
#234=ORIENTED_EDGE('',*,*,#161,.F.);
#235=ORIENTED_EDGE('',*,*,#160,.T.);
#236=ORIENTED_EDGE('',*,*,#163,.F.);
#237=ORIENTED_EDGE('',*,*,#165,.F.);
#238=ORIENTED_EDGE('',*,*,#136,.F.);
#239=ORIENTED_EDGE('',*,*,#140,.T.);
#240=ORIENTED_EDGE('',*,*,#133,.F.);
#241=ORIENTED_EDGE('',*,*,#128,.F.);
#242=CYLINDRICAL_SURFACE('',#278,0.1);
#243=CYLINDRICAL_SURFACE('',#288,0.2);
#244=CYLINDRICAL_SURFACE('',#290,0.2);
#245=CYLINDRICAL_SURFACE('',#296,0.2);
#246=CYLINDRICAL_SURFACE('',#304,0.2);
#247=CYLINDRICAL_SURFACE('',#309,0.2);
#248=ADVANCED_FACE('',(#51),#242,.T.);
#249=ADVANCED_FACE('',(#52),#50,.F.);
#250=ADVANCED_FACE('',(#53),#49,.T.);
#251=ADVANCED_FACE('',(#54),#28,.T.);
#252=ADVANCED_FACE('',(#55),#24,.F.);
#253=ADVANCED_FACE('',(#56),#243,.T.);
#254=ADVANCED_FACE('',(#57),#244,.T.);
#255=ADVANCED_FACE('',(#58),#25,.F.);
#256=ADVANCED_FACE('',(#59),#245,.T.);
#257=ADVANCED_FACE('',(#60),#26,.F.);
#258=ADVANCED_FACE('',(#61),#27,.F.);
#259=ADVANCED_FACE('',(#62),#246,.T.);
#260=ADVANCED_FACE('',(#63),#29,.F.);
#261=ADVANCED_FACE('',(#64),#247,.T.);
#262=ADVANCED_FACE('',(#65),#30,.T.);
#263=CLOSED_SHELL('',(#248,#249,#250,#251,#252,#253,#254,#255,#256,#257,
#258,#259,#260,#261,#262));
#264=DERIVED_UNIT_ELEMENT(#266,1.);
#265=DERIVED_UNIT_ELEMENT(#719,-3.);
#266=(
MASS_UNIT()
NAMED_UNIT(*)
SI_UNIT(.KILO.,.GRAM.)
);
#267=DERIVED_UNIT((#264,#265));
#268=MEASURE_REPRESENTATION_ITEM('density measure',
POSITIVE_RATIO_MEASURE(7850.),#267);
#269=PROPERTY_DEFINITION_REPRESENTATION(#274,#271);
#270=PROPERTY_DEFINITION_REPRESENTATION(#275,#272);
#271=REPRESENTATION('material name',(#273),#716);
#272=REPRESENTATION('density',(#268),#716);
#273=DESCRIPTIVE_REPRESENTATION_ITEM('\X2\92FC\X0\','\X2\92FC\X0\');
#274=PROPERTY_DEFINITION('material property','material name',#731);
#275=PROPERTY_DEFINITION('material property','density of part',#731);
#276=AXIS2_PLACEMENT_3D('',#391,#312,#313);
#277=AXIS2_PLACEMENT_3D('',#392,#314,#315);
#278=AXIS2_PLACEMENT_3D('',#393,#316,#317);
#279=AXIS2_PLACEMENT_3D('',#554,#320,#321);
#280=AXIS2_PLACEMENT_3D('',#557,#322,#323);
#281=AXIS2_PLACEMENT_3D('',#558,#324,#325);
#282=AXIS2_PLACEMENT_3D('',#559,#326,#327);
#283=AXIS2_PLACEMENT_3D('',#578,#328,#329);
#284=AXIS2_PLACEMENT_3D('',#602,#330,#331);
#285=AXIS2_PLACEMENT_3D('',#604,#332,#333);
#286=AXIS2_PLACEMENT_3D('',#606,#334,#335);
#287=AXIS2_PLACEMENT_3D('',#607,#336,#337);
#288=AXIS2_PLACEMENT_3D('',#608,#338,#339);
#289=AXIS2_PLACEMENT_3D('',#609,#340,#341);
#290=AXIS2_PLACEMENT_3D('',#611,#343,#344);
#291=AXIS2_PLACEMENT_3D('',#614,#345,#346);
#292=AXIS2_PLACEMENT_3D('',#616,#347,#348);
#293=AXIS2_PLACEMENT_3D('',#617,#349,#350);
#294=AXIS2_PLACEMENT_3D('',#641,#352,#353);
#295=AXIS2_PLACEMENT_3D('',#642,#354,#355);
#296=AXIS2_PLACEMENT_3D('',#643,#356,#357);
#297=AXIS2_PLACEMENT_3D('',#646,#358,#359);
#298=AXIS2_PLACEMENT_3D('',#648,#360,#361);
#299=AXIS2_PLACEMENT_3D('',#649,#362,#363);
#300=AXIS2_PLACEMENT_3D('',#673,#365,#366);
#301=AXIS2_PLACEMENT_3D('',#674,#367,#368);
#302=AXIS2_PLACEMENT_3D('',#698,#369,#370);
#303=AXIS2_PLACEMENT_3D('',#699,#371,#372);
#304=AXIS2_PLACEMENT_3D('',#700,#373,#374);
#305=AXIS2_PLACEMENT_3D('',#702,#375,#376);
#306=AXIS2_PLACEMENT_3D('',#704,#378,#379);
#307=AXIS2_PLACEMENT_3D('',#705,#380,#381);
#308=AXIS2_PLACEMENT_3D('',#707,#382,#383);
#309=AXIS2_PLACEMENT_3D('',#708,#384,#385);
#310=AXIS2_PLACEMENT_3D('',#710,#387,#388);
#311=AXIS2_PLACEMENT_3D('',#711,#389,#390);
#312=DIRECTION('axis',(0.,0.,1.));
#313=DIRECTION('refdir',(1.,0.,0.));
#314=DIRECTION('axis',(0.,0.,1.));
#315=DIRECTION('refdir',(1.,0.,0.));
#316=DIRECTION('center_axis',(-1.,2.32881309995153E-18,-7.92393096948363E-17));
#317=DIRECTION('ref_axis',(-5.0695961539236E-17,0.748955720788995,0.662620048215746));
#318=DIRECTION('',(1.,-2.32881309995153E-18,7.92393096948363E-17));
#319=DIRECTION('',(-1.,2.32881309995153E-18,-7.92393096948363E-17));
#320=DIRECTION('center_axis',(1.,-2.33173472197831E-18,7.91915415969427E-17));
#321=DIRECTION('ref_axis',(0.,-0.0610485395348519,-0.998134798421867));
#322=DIRECTION('center_axis',(7.16191352470232E-18,0.998134798421867,-0.061048539534857));
#323=DIRECTION('ref_axis',(-1.,2.33173472197831E-18,-7.91915415969427E-17));
#324=DIRECTION('center_axis',(7.16191352470232E-18,0.998134798421867,-0.061048539534857));
#325=DIRECTION('ref_axis',(-1.,2.33173472197831E-18,-7.91915415969427E-17));
#326=DIRECTION('center_axis',(-1.,2.33173472197831E-18,-7.91915415969427E-17));
#327=DIRECTION('ref_axis',(7.89014844092217E-17,-0.0610485395348803,-0.998134798421866));
#328=DIRECTION('center_axis',(7.16191352470231E-18,0.998134798421867,-0.0610485395348569));
#329=DIRECTION('ref_axis',(-7.89014844092218E-17,0.0610485395348569,0.998134798421867));
#330=DIRECTION('center_axis',(7.16191352470232E-18,0.998134798421867,-0.061048539534857));
#331=DIRECTION('ref_axis',(-1.,2.33173472197831E-18,-7.91915415969427E-17));
#332=DIRECTION('center_axis',(7.16191352470232E-18,0.998134798421867,-0.061048539534857));
#333=DIRECTION('ref_axis',(-1.,2.33173472197831E-18,-7.91915415969427E-17));
#334=DIRECTION('center_axis',(4.16151123025898E-17,0.866025403784446,-0.499999999999988));
#335=DIRECTION('ref_axis',(-1.,2.33173472197831E-18,-7.91915415969427E-17));
#336=DIRECTION('center_axis',(4.16151123025898E-17,0.866025403784446,-0.499999999999988));
#337=DIRECTION('ref_axis',(-1.,2.33173472197831E-18,-7.91915415969427E-17));
#338=DIRECTION('center_axis',(7.16191352470278E-18,0.998134798421867,-0.0610485395348629));
#339=DIRECTION('ref_axis',(-1.,2.33173472197831E-18,-7.91915415969427E-17));
#340=DIRECTION('center_axis',(-2.50555091467833E-17,-0.957571360804821,
0.288196268134068));
#341=DIRECTION('ref_axis',(-7.51595550060633E-17,0.288196268134068,0.957571360804821));
#342=DIRECTION('',(-7.16191352470278E-18,-0.998134798421867,0.0610485395348629));
#343=DIRECTION('center_axis',(4.16151123025907E-17,0.86602540378444,-0.499999999999998));
#344=DIRECTION('ref_axis',(-1.,2.33173472197831E-18,-7.91915415969427E-17));
#345=DIRECTION('center_axis',(4.16151123025898E-17,0.866025403784446,-0.499999999999988));
#346=DIRECTION('ref_axis',(-1.,2.33173472197831E-18,-7.91915415969427E-17));
#347=DIRECTION('center_axis',(1.9550562048185E-6,-0.499241267200195,0.866463015437197));
#348=DIRECTION('ref_axis',(-3.22638459834408E-16,0.866463015438853,0.49924126720115));
#349=DIRECTION('center_axis',(4.16151123025898E-17,0.866025403784446,-0.499999999999988));
#350=DIRECTION('ref_axis',(-1.,2.33173472197831E-18,-7.91915415969427E-17));
#351=DIRECTION('',(-4.16151123025907E-17,-0.86602540378444,0.499999999999998));
#352=DIRECTION('center_axis',(-3.38454296324622E-6,-0.00175177474291155,
-0.99999846563572));
#353=DIRECTION('ref_axis',(-0.999999999992355,-1.95208947054407E-6,3.38796778262749E-6));
#354=DIRECTION('center_axis',(-3.38454296324622E-6,-0.00175177474291155,
-0.99999846563572));
#355=DIRECTION('ref_axis',(-0.999999999992355,-1.95208947054407E-6,3.38796778262749E-6));
#356=DIRECTION('center_axis',(-3.38454296263902E-6,-0.00175177474276146,
-0.999998465635721));
#357=DIRECTION('ref_axis',(-0.999999999992356,-1.95208947054513E-6,3.38796778202E-6));
#358=DIRECTION('center_axis',(-3.38454296324622E-6,-0.00175177474291157,
-0.99999846563572));
#359=DIRECTION('ref_axis',(-0.999999999992355,-1.95208947054407E-6,3.38796778262749E-6));
#360=DIRECTION('center_axis',(-1.1617209775295E-5,0.707725855971041,0.706487163828968));
#361=DIRECTION('ref_axis',(-3.77687968319514E-6,0.706487163840549,-0.707725856044748));
#362=DIRECTION('center_axis',(-3.38454296324622E-6,-0.00175177474291157,
-0.99999846563572));
#363=DIRECTION('ref_axis',(-0.999999999992355,-1.95208947054407E-6,3.38796778262749E-6));
#364=DIRECTION('',(3.38454296263902E-6,0.00175177474276146,0.99999846563572));
#365=DIRECTION('center_axis',(1.98281408353415E-5,-0.999999999803423,2.52610432571743E-13));
#366=DIRECTION('ref_axis',(-0.999999999698923,-1.98281408332731E-5,-1.445679614793E-5));
#367=DIRECTION('center_axis',(1.98281408353415E-5,-0.999999999803423,2.52610432571743E-13));
#368=DIRECTION('ref_axis',(-0.999999999698923,-1.98281408332731E-5,-1.445679614793E-5));
#369=DIRECTION('center_axis',(1.98281408353415E-5,-0.999999999803422,2.52770027131532E-13));
#370=DIRECTION('ref_axis',(-0.999999999698923,-1.98281408332731E-5,-1.445679614793E-5));
#371=DIRECTION('center_axis',(1.,3.55078342418647E-11,6.90372931173349E-14));
#372=DIRECTION('ref_axis',(3.5507835261035E-11,-0.999999999895501,-1.44567960639881E-5));
#373=DIRECTION('center_axis',(1.98281424347474E-5,-0.999999999803422,2.83261608613472E-12));
#374=DIRECTION('ref_axis',(-0.999999999698923,-1.98281424327163E-5,-1.445679614793E-5));
#375=DIRECTION('center_axis',(-0.707113791459711,0.707099770843883,-4.42777758902224E-13));
#376=DIRECTION('ref_axis',(-0.707099770806937,-0.707113791422764,-1.02225983281811E-5));
#377=DIRECTION('',(-1.98281424347474E-5,0.999999999803422,-2.83261608613472E-12));
#378=DIRECTION('center_axis',(-0.707113791459711,0.707099770843883,-4.42777758902224E-13));
#379=DIRECTION('ref_axis',(-0.707099770806937,-0.707113791422764,-1.02225983281811E-5));
#380=DIRECTION('center_axis',(-1.,-3.55078344821631E-11,-6.90505405875693E-14));
#381=DIRECTION('ref_axis',(-6.83717853775534E-14,-1.44567960639955E-5,0.9999999998955));
#382=DIRECTION('center_axis',(1.,3.55078344821631E-11,6.90505405875693E-14));
#383=DIRECTION('ref_axis',(3.55078352540749E-11,-0.999999999895501,-1.44567960639989E-5));
#384=DIRECTION('center_axis',(1.,2.62263513791725E-12,-2.19135369746862E-12));
#385=DIRECTION('ref_axis',(2.62260323506236E-12,-0.999999999895501,-1.44567960639989E-5));
#386=DIRECTION('',(-1.,-2.62263513791725E-12,2.19135369746862E-12));
#387=DIRECTION('center_axis',(-7.89493417707417E-17,0.0610485395348569,
0.998134798421867));
#388=DIRECTION('ref_axis',(1.,-2.42115242635543E-18,7.92449574099821E-17));
#389=DIRECTION('',(0.,0.,1.));
#390=DIRECTION('',(1.,0.,0.));
#391=CARTESIAN_POINT('',(0.,0.,0.));
#392=CARTESIAN_POINT('',(0.,0.,0.));
#393=CARTESIAN_POINT('Origin',(25.8195241707476,-52.1059895787634,-2.03129557007379));
#394=CARTESIAN_POINT('',(24.4202057384307,-52.09988472481,-1.93148209023161));
#395=CARTESIAN_POINT('',(24.8188154953764,-52.09988472481,-1.93148209023161));
#396=CARTESIAN_POINT('',(25.8195241707476,-52.09988472481,-1.93148209023161));
#397=CARTESIAN_POINT('',(24.6840402895355,-52.0061760989213,-2.03740042402728));
#398=CARTESIAN_POINT('Ctrl Pts',(24.8188154953764,-52.09988472481,-1.93148209023161));
#399=CARTESIAN_POINT('Ctrl Pts',(24.8188154953764,-52.090020078747,-1.93208543783168));
#400=CARTESIAN_POINT('Ctrl Pts',(24.8174724222136,-52.0804437878766,-1.93414294418844));
#401=CARTESIAN_POINT('Ctrl Pts',(24.812044408671,-52.0615606524987,-1.94108604975906));
#402=CARTESIAN_POINT('Ctrl Pts',(24.8077855979757,-52.0527424921582,-1.94611017327635));
#403=CARTESIAN_POINT('Ctrl Pts',(24.7960812629387,-52.0361181623994,-1.95885791807366));
#404=CARTESIAN_POINT('Ctrl Pts',(24.7879530662453,-52.0284357697637,-1.9671998680593));
#405=CARTESIAN_POINT('Ctrl Pts',(24.7665740999226,-52.015637077987,-1.98672271643314));
#406=CARTESIAN_POINT('Ctrl Pts',(24.7534770373771,-52.0112504900566,-1.99754873145939));
#407=CARTESIAN_POINT('Ctrl Pts',(24.7218536655884,-52.0060297291338,-2.0192901374045));
#408=CARTESIAN_POINT('Ctrl Pts',(24.7039865924392,-52.0057240124348,-2.02934971286538));
#409=CARTESIAN_POINT('Ctrl Pts',(24.6848978409,-52.0061556302479,-2.03705861561877));
#410=CARTESIAN_POINT('Ctrl Pts',(24.6844693185052,-52.0061656859943,-2.03723017417651));
#411=CARTESIAN_POINT('Ctrl Pts',(24.6840402895355,-52.0061760989213,-2.03740042402728));
#412=CARTESIAN_POINT('',(24.5549809442716,-52.0061760989213,-2.03740042402729));
#413=CARTESIAN_POINT('',(25.8195241707476,-52.0061760989213,-2.03740042402728));
#414=CARTESIAN_POINT('Ctrl Pts',(24.5550308815647,-52.0061721716151,-2.03733621313962));
#415=CARTESIAN_POINT('Ctrl Pts',(24.5546012072789,-52.0061623356894,-2.03716502612383));
#416=CARTESIAN_POINT('Ctrl Pts',(24.5541720475562,-52.0061528581673,-2.03699259614637));
#417=CARTESIAN_POINT('Ctrl Pts',(24.5537434191855,-52.006143760281,-2.03681894663736));
#418=CARTESIAN_POINT('Ctrl Pts',(24.553274188185,-52.0061338005804,-2.03662884785153));
#419=CARTESIAN_POINT('Ctrl Pts',(24.5528055689142,-52.0061242885192,-2.0364371773735));
#420=CARTESIAN_POINT('Ctrl Pts',(24.5523375676907,-52.0061152518991,-2.03624397755165));
#421=CARTESIAN_POINT('Ctrl Pts',(24.5453212135086,-52.005979773349,-2.03334749286368));
#422=CARTESIAN_POINT('Ctrl Pts',(24.538440139773,-52.0059508811605,-2.03011077098552));
#423=CARTESIAN_POINT('Ctrl Pts',(24.5316930112731,-52.00612152516,-2.02658939775161));
#424=CARTESIAN_POINT('Ctrl Pts',(24.5298002114022,-52.0061693966271,-2.02560153235039));
#425=CARTESIAN_POINT('Ctrl Pts',(24.5279182095996,-52.006232973841,-2.02459105308918));
#426=CARTESIAN_POINT('Ctrl Pts',(24.5260475492696,-52.0063142587135,-2.02355884071919));
#427=CARTESIAN_POINT('Ctrl Pts',(24.5191666371673,-52.0066132515633,-2.01976201963162));
#428=CARTESIAN_POINT('Ctrl Pts',(24.5124354538568,-52.0071531257433,-2.01566922542252));
#429=CARTESIAN_POINT('Ctrl Pts',(24.5059063293724,-52.0080264170919,-2.01136039477049));
#430=CARTESIAN_POINT('Ctrl Pts',(24.504153723818,-52.0082608337081,-2.01020378019657));
#431=CARTESIAN_POINT('Ctrl Pts',(24.5024159159737,-52.0085191709348,-2.00903174129624));
#432=CARTESIAN_POINT('Ctrl Pts',(24.500694361522,-52.0088029595278,-2.00784617648714));
#433=CARTESIAN_POINT('Ctrl Pts',(24.4939397545183,-52.0099164185973,-2.00319455227923));
#434=CARTESIAN_POINT('Ctrl Pts',(24.4875892866641,-52.0113974507859,-1.99844774034011));
#435=CARTESIAN_POINT('Ctrl Pts',(24.4816272347762,-52.0132953923083,-1.99372372205066));
#436=CARTESIAN_POINT('Ctrl Pts',(24.4757271695904,-52.0151736011718,-1.98904881878395));
#437=CARTESIAN_POINT('Ctrl Pts',(24.4702063181713,-52.0174593729511,-1.98439591042351));
#438=CARTESIAN_POINT('Ctrl Pts',(24.4650642596171,-52.0201962813612,-1.97983206134668));
#439=CARTESIAN_POINT('Ctrl Pts',(24.4637623288971,-52.0208892460755,-1.97867652893642));
#440=CARTESIAN_POINT('Ctrl Pts',(24.4624848091681,-52.0216111388343,-1.9775264814218));
#441=CARTESIAN_POINT('Ctrl Pts',(24.4612320007949,-52.0223626991971,-1.97638256087766));
#442=CARTESIAN_POINT('Ctrl Pts',(24.4608790249413,-52.0225744495862,-1.97606026391744));
#443=CARTESIAN_POINT('Ctrl Pts',(24.4605285991531,-52.0227882031406,-1.97573899055711));
#444=CARTESIAN_POINT('Ctrl Pts',(24.4601807159688,-52.0230039561121,-1.97541878220594));
#445=CARTESIAN_POINT('Ctrl Pts',(24.455364622445,-52.0259908394553,-1.97098581896993));
#446=CARTESIAN_POINT('Ctrl Pts',(24.4510356477062,-52.0293610000939,-1.96676204204298));
#447=CARTESIAN_POINT('Ctrl Pts',(24.447146313395,-52.0330747042894,-1.96282901163288));
#448=CARTESIAN_POINT('Ctrl Pts',(24.4432569790837,-52.036788408485,-1.95889598122277));
#449=CARTESIAN_POINT('Ctrl Pts',(24.4398058577964,-52.0408453939685,-1.95525326396297));
#450=CARTESIAN_POINT('Ctrl Pts',(24.4367621181879,-52.0452081546676,-1.95192432670545));
#451=CARTESIAN_POINT('Ctrl Pts',(24.433540322181,-52.0498261334724,-1.948400649209));
#452=CARTESIAN_POINT('Ctrl Pts',(24.4307124819774,-52.0548792126456,-1.94516807847193));
#453=CARTESIAN_POINT('Ctrl Pts',(24.4283322626805,-52.0603510264147,-1.94235840233558));
#454=CARTESIAN_POINT('Ctrl Pts',(24.4267849765775,-52.0639080353905,-1.94053194338474));
#455=CARTESIAN_POINT('Ctrl Pts',(24.4254273846836,-52.0676416020388,-1.93888406455849));
#456=CARTESIAN_POINT('Ctrl Pts',(24.4242837467445,-52.0715405943207,-1.93744712660364));
#457=CARTESIAN_POINT('Ctrl Pts',(24.4227131768441,-52.0768951210551,-1.93547376473504));
#458=CARTESIAN_POINT('Ctrl Pts',(24.4215741276746,-52.0824620616805,-1.93393658604695));
#459=CARTESIAN_POINT('Ctrl Pts',(24.4209035377123,-52.0881852442259,-1.9328965299669));
#460=CARTESIAN_POINT('Ctrl Pts',(24.420453971623,-52.0920220878109,-1.93219927237165));
#461=CARTESIAN_POINT('Ctrl Pts',(24.4202155630686,-52.0959289747857,-1.9317248349868));
#462=CARTESIAN_POINT('Ctrl Pts',(24.4202083423406,-52.0998856076388,-1.93148224862376));
#463=CARTESIAN_POINT('Ctrl Pts',(24.8187768995317,-52.1026530575644,-1.9313127717469));
#464=CARTESIAN_POINT('Ctrl Pts',(24.8227867429429,-52.0981705112032,-1.97850192145379));
#465=CARTESIAN_POINT('Ctrl Pts',(24.7977537636961,-52.0854724516846,-2.07308207815141));
#466=CARTESIAN_POINT('Ctrl Pts',(24.6886352719115,-52.0626010570985,-2.14928026816772));
#467=CARTESIAN_POINT('Ctrl Pts',(24.5679168145684,-52.0623994198121,-2.1493354318167));
#468=CARTESIAN_POINT('Ctrl Pts',(24.4957342224053,-52.0742816425038,-2.11108056488145));
#469=CARTESIAN_POINT('Ctrl Pts',(24.4334237503838,-52.0894267129418,-2.0416429492264));
#470=CARTESIAN_POINT('Ctrl Pts',(24.4162349832586,-52.0981710616439,-1.97849612679479));
#471=CARTESIAN_POINT('Ctrl Pts',(24.4202443342754,-52.1026530575644,-1.9313127717469));
#472=CARTESIAN_POINT('Ctrl Pts',(24.8196186102347,-52.0722690810014,-1.93310261194783));
#473=CARTESIAN_POINT('Ctrl Pts',(24.8213080681572,-52.0691560271447,-1.98066310912744));
#474=CARTESIAN_POINT('Ctrl Pts',(24.7907273504635,-52.0601668777757,-2.07220335126307));
#475=CARTESIAN_POINT('Ctrl Pts',(24.6840066356747,-52.0449417563163,-2.14018166513803));
#476=CARTESIAN_POINT('Ctrl Pts',(24.5712704555994,-52.0448400692799,-2.14027270668286));
#477=CARTESIAN_POINT('Ctrl Pts',(24.5016349945841,-52.0526874140617,-2.10609167934965));
#478=CARTESIAN_POINT('Ctrl Pts',(24.4383126299605,-52.0630175090404,-2.04180241969285));
#479=CARTESIAN_POINT('Ctrl Pts',(24.4177133731093,-52.0691564094166,-1.98065726886829));
#480=CARTESIAN_POINT('Ctrl Pts',(24.4194026235724,-52.0722690810014,-1.93310261194783));
#481=CARTESIAN_POINT('Ctrl Pts',(24.7950950426293,-52.0191278303595,-1.93834932636957));
#482=CARTESIAN_POINT('Ctrl Pts',(24.7949857372999,-52.0198557429085,-1.98022088240037));
#483=CARTESIAN_POINT('Ctrl Pts',(24.7645696987531,-52.0203646164383,-2.0584286736628));
#484=CARTESIAN_POINT('Ctrl Pts',(24.6731606199831,-52.0187217165046,-2.11455328814341));
#485=CARTESIAN_POINT('Ctrl Pts',(24.5793435455327,-52.0187109881764,-2.11470727650824));
#486=CARTESIAN_POINT('Ctrl Pts',(24.5201283240897,-52.0195625462718,-2.08634903719406));
#487=CARTESIAN_POINT('Ctrl Pts',(24.4644636085776,-52.0201764046738,-2.03253994564392));
#488=CARTESIAN_POINT('Ctrl Pts',(24.4440354830849,-52.0198556535235,-1.98021574072287));
#489=CARTESIAN_POINT('Ctrl Pts',(24.4439261911777,-52.0191278303595,-1.93834932636957));
#490=CARTESIAN_POINT('Ctrl Pts',(24.7419049510743,-52.0004525815957,-1.94382174294001));
#491=CARTESIAN_POINT('Ctrl Pts',(24.7432823976803,-52.002292891295,-1.97357669991033));
#492=CARTESIAN_POINT('Ctrl Pts',(24.725406953652,-52.0059053865429,-2.03201729457049));
#493=CARTESIAN_POINT('Ctrl Pts',(24.6598011868246,-52.0088624141648,-2.08004820877736));
#494=CARTESIAN_POINT('Ctrl Pts',(24.5894017670648,-52.0088712254363,-2.08019441168855));
#495=CARTESIAN_POINT('Ctrl Pts',(24.5463745425442,-52.0073739952731,-2.05586857310013));
#496=CARTESIAN_POINT('Ctrl Pts',(24.5078806131889,-52.0047126454966,-2.01272681237951));
#497=CARTESIAN_POINT('Ctrl Pts',(24.4957390052723,-52.0022926653115,-1.97357304610791));
#498=CARTESIAN_POINT('Ctrl Pts',(24.4971162827328,-52.0004525815957,-1.94382174294001));
#499=CARTESIAN_POINT('Ctrl Pts',(24.7191437582177,-52.0005654924391,-1.9456678189109));
#500=CARTESIAN_POINT('Ctrl Pts',(24.7211486799232,-52.002071778102,-1.9702953718045));
#501=CARTESIAN_POINT('Ctrl Pts',(24.7086321902998,-52.0051357946952,-2.02039160028091));
#502=CARTESIAN_POINT('Ctrl Pts',(24.6540729444075,-52.0078688031668,-2.06507589380625));
#503=CARTESIAN_POINT('Ctrl Pts',(24.593713715736,-52.0078776067348,-2.06521983087125));
#504=CARTESIAN_POINT('Ctrl Pts',(24.5576224196544,-52.0064916077654,-2.04255894803163));
#505=CARTESIAN_POINT('Ctrl Pts',(24.5264671836437,-52.0041263825665,-2.00388785785982));
#506=CARTESIAN_POINT('Ctrl Pts',(24.5178728000811,-52.0020715931355,-1.97029234762898));
#507=CARTESIAN_POINT('Ctrl Pts',(24.5198774755895,-52.0005654924391,-1.9456678189109));
#508=CARTESIAN_POINT('Ctrl Pts',(24.5549809453101,-52.0061764324256,-2.03740040252613));
#509=CARTESIAN_POINT('Ctrl Pts',(24.5639582036093,-52.0066940518486,-2.04586278266276));
#510=CARTESIAN_POINT('Ctrl Pts',(24.5744217272595,-52.0071225546222,-2.0528675956859));
#511=CARTESIAN_POINT('Ctrl Pts',(24.5858178179457,-52.0074086958749,-2.05754486966139));
#512=CARTESIAN_POINT('Ctrl Pts',(24.5888463722909,-52.0074847389986,-2.05878787296947));
#513=CARTESIAN_POINT('Ctrl Pts',(24.5919405614485,-52.0075507378169,-2.05986665875692));
#514=CARTESIAN_POINT('Ctrl Pts',(24.5950895689545,-52.0076057230047,-2.06076539213925));
#515=CARTESIAN_POINT('Ctrl Pts',(24.6030055245677,-52.00774394443,-2.06302462256313));
#516=CARTESIAN_POINT('Ctrl Pts',(24.6112677562978,-52.007812523034,-2.06414532261955));
#517=CARTESIAN_POINT('Ctrl Pts',(24.6195106169026,-52.007812535211,-2.06414532178476));
#518=CARTESIAN_POINT('Ctrl Pts',(24.6277768781767,-52.0078125474225,-2.06414532094759));
#519=CARTESIAN_POINT('Ctrl Pts',(24.6360842831524,-52.0077426445553,-2.06300385449751));
#520=CARTESIAN_POINT('Ctrl Pts',(24.6440317651631,-52.0076032488831,-2.06072656719382));
#521=CARTESIAN_POINT('Ctrl Pts',(24.6527567698821,-52.007450215772,-2.05822648698673));
#522=CARTESIAN_POINT('Ctrl Pts',(24.661045436255,-52.0072134365509,-2.05435755306225));
#523=CARTESIAN_POINT('Ctrl Pts',(24.6686776783831,-52.0069131502385,-2.04944932975226));
#524=CARTESIAN_POINT('Ctrl Pts',(24.6739149409699,-52.0067070930612,-2.04608129531657));
#525=CARTESIAN_POINT('Ctrl Pts',(24.6788437958216,-52.006471203835,-2.04222508197065));
#526=CARTESIAN_POINT('Ctrl Pts',(24.6834055323616,-52.0062124218742,-2.03799395405713));
#527=CARTESIAN_POINT('Ctrl Pts',(24.683617918294,-52.0062003734695,-2.03779696064481));
#528=CARTESIAN_POINT('Ctrl Pts',(24.6838295071831,-52.0061882729585,-2.03759911589253));
#529=CARTESIAN_POINT('Ctrl Pts',(24.6840402894795,-52.0061761204867,-2.03740042264891));
#530=CARTESIAN_POINT('',(24.8187768995317,-52.1026530575644,-1.9313127717469));
#531=CARTESIAN_POINT('Ctrl Pts',(24.818812891467,-52.0998856076391,-1.93148224862365));
#532=CARTESIAN_POINT('Ctrl Pts',(24.8188145743759,-52.1008077656975,-1.93142570990049));
#533=CARTESIAN_POINT('Ctrl Pts',(24.8188027172016,-52.101730254474,-1.93137025303397));
#534=CARTESIAN_POINT('Ctrl Pts',(24.8187771661578,-52.102652759477,-1.93131590977632));
#535=CARTESIAN_POINT('',(24.619630269561,-52.0630619790326,-2.14741819357572));
#536=CARTESIAN_POINT('Ctrl Pts',(24.8187768995317,-52.1026530575644,-1.9313127717469));
#537=CARTESIAN_POINT('Ctrl Pts',(24.8227867429429,-52.0981705112032,-1.97850192145379));
#538=CARTESIAN_POINT('Ctrl Pts',(24.7977537636961,-52.0854724516846,-2.07308207815141));
#539=CARTESIAN_POINT('Ctrl Pts',(24.702275740513,-52.0654601191569,-2.13975503553836));
#540=CARTESIAN_POINT('Ctrl Pts',(24.6361792459006,-52.0630807222337,-2.14740034692261));
#541=CARTESIAN_POINT('Ctrl Pts',(24.6196462396368,-52.063069505542,-2.14740274385808));
#542=CARTESIAN_POINT('',(24.4202443342754,-52.1026530575644,-1.9313127717469));
#543=CARTESIAN_POINT('Ctrl Pts',(24.6196462396368,-52.063069505542,-2.14740274385808));
#544=CARTESIAN_POINT('Ctrl Pts',(24.603111640267,-52.0630582877694,-2.14740514102451));
#545=CARTESIAN_POINT('Ctrl Pts',(24.5534809916474,-52.0647757498599,-2.14168482703244));
#546=CARTESIAN_POINT('Ctrl Pts',(24.4957342224053,-52.0742816425038,-2.11108056488145));
#547=CARTESIAN_POINT('Ctrl Pts',(24.4334237503838,-52.0894267129418,-2.0416429492264));
#548=CARTESIAN_POINT('Ctrl Pts',(24.4162349832586,-52.0981710616439,-1.97849612679479));
#549=CARTESIAN_POINT('Ctrl Pts',(24.4202443342754,-52.1026530575644,-1.9313127717469));
#550=CARTESIAN_POINT('Ctrl Pts',(24.4202443342754,-52.1026530575644,-1.9313127717469));
#551=CARTESIAN_POINT('Ctrl Pts',(24.4202187785467,-52.1017305497963,-1.93136711425489));
#552=CARTESIAN_POINT('Ctrl Pts',(24.4202069167666,-52.1008080582042,-1.93142257059377));
#553=CARTESIAN_POINT('Ctrl Pts',(24.4202085951487,-52.0998858972827,-1.9314791090085));
#554=CARTESIAN_POINT('Origin',(24.6195106169036,-52.0183858068282,-2.23702738371165));
#555=CARTESIAN_POINT('',(24.8195106169036,-52.0367003686887,-2.53646782323821));
#556=CARTESIAN_POINT('',(24.6195106169036,-52.0244906607817,-2.33684086355384));
#557=CARTESIAN_POINT('Origin',(24.6195106169036,-52.0367003686887,-2.53646782323821));
#558=CARTESIAN_POINT('Origin',(24.6195106169036,-52.0367003686887,-2.53646782323821));
#559=CARTESIAN_POINT('Origin',(24.6195106169036,-52.0183858068282,-2.23702738371165));
#560=CARTESIAN_POINT('Ctrl Pts',(24.4202443342754,-52.1026530575644,-1.9313127717469));
#561=CARTESIAN_POINT('Ctrl Pts',(24.4218883709595,-52.161601920132,-1.92770730485737));
#562=CARTESIAN_POINT('Ctrl Pts',(24.4283977626876,-52.2212868712954,-1.92405681686066));
#563=CARTESIAN_POINT('Ctrl Pts',(24.4600666147195,-52.2976111779126,-1.91938862228679));
#564=CARTESIAN_POINT('Ctrl Pts',(24.4779454634389,-52.326319998539,-1.91763271559585));
#565=CARTESIAN_POINT('Ctrl Pts',(24.5135241141304,-52.3623434349693,-1.91542942783694));
#566=CARTESIAN_POINT('Ctrl Pts',(24.5356104733203,-52.37775558935,-1.91448678009286));
#567=CARTESIAN_POINT('Ctrl Pts',(24.5751142470068,-52.394372082206,-1.91347047185207));
#568=CARTESIAN_POINT('Ctrl Pts',(24.5990995614474,-52.3993251643365,-1.91316752837115));
#569=CARTESIAN_POINT('Ctrl Pts',(24.6399216723597,-52.3993251643365,-1.91316752837115));
#570=CARTESIAN_POINT('Ctrl Pts',(24.6639069868003,-52.394372082206,-1.91347047185207));
#571=CARTESIAN_POINT('Ctrl Pts',(24.7034107604868,-52.37775558935,-1.91448678009286));
#572=CARTESIAN_POINT('Ctrl Pts',(24.7254971196767,-52.3623434349693,-1.91542942783694));
#573=CARTESIAN_POINT('Ctrl Pts',(24.7610757703682,-52.326319998539,-1.91763271559585));
#574=CARTESIAN_POINT('Ctrl Pts',(24.7789546190876,-52.2976111779126,-1.91938862228679));
#575=CARTESIAN_POINT('Ctrl Pts',(24.8106234711195,-52.2212868712954,-1.92405681686066));
#576=CARTESIAN_POINT('Ctrl Pts',(24.8171328628477,-52.161601920132,-1.92770730485737));
#577=CARTESIAN_POINT('Ctrl Pts',(24.8187768995317,-52.1026530575644,-1.9313127717469));
#578=CARTESIAN_POINT('Origin',(24.6195106169036,-52.0000712449678,-1.93758694418509));
#579=CARTESIAN_POINT('Ctrl Pts',(24.7927156976604,-51.7668677377968,-2.65315836265128));
#580=CARTESIAN_POINT('Ctrl Pts',(24.7927156976604,-51.7668677377968,-2.65315836265128));
#581=CARTESIAN_POINT('Ctrl Pts',(24.7927156976604,-51.7668677377968,-2.65315836265128));
#582=CARTESIAN_POINT('Ctrl Pts',(24.8766256607782,-51.7579951677572,-2.50809312480242));
#583=CARTESIAN_POINT('Ctrl Pts',(24.8766256607782,-51.7238368384777,-2.51018233772111));
#584=CARTESIAN_POINT('Ctrl Pts',(24.8766256607782,-51.6941995781061,-2.52729341797475));
#585=CARTESIAN_POINT('Ctrl Pts',(24.7480681388409,-51.751409704949,-2.40042175964615));
#586=CARTESIAN_POINT('Ctrl Pts',(24.7480681388409,-51.691898134607,-2.40406164321753));
#587=CARTESIAN_POINT('Ctrl Pts',(24.7480681388409,-51.6402632934847,-2.43387303263916));
#588=CARTESIAN_POINT('Ctrl Pts',(24.6195106169036,-51.7448242421409,-2.29275039448987));
#589=CARTESIAN_POINT('Ctrl Pts',(24.6195106169036,-51.6599594307364,-2.29794094871395));
#590=CARTESIAN_POINT('Ctrl Pts',(24.6195106169036,-51.5863270088633,-2.34045264730356));
#591=CARTESIAN_POINT('Ctrl Pts',(24.4909530949662,-51.751409704949,-2.40042175964615));
#592=CARTESIAN_POINT('Ctrl Pts',(24.4909530949662,-51.691898134607,-2.40406164321753));
#593=CARTESIAN_POINT('Ctrl Pts',(24.4909530949662,-51.6402632934847,-2.43387303263916));
#594=CARTESIAN_POINT('Ctrl Pts',(24.3623955730289,-51.7579951677572,-2.50809312480242));
#595=CARTESIAN_POINT('Ctrl Pts',(24.3623955730289,-51.7238368384777,-2.51018233772111));
#596=CARTESIAN_POINT('Ctrl Pts',(24.3623955730289,-51.6941995781061,-2.52729341797475));
#597=CARTESIAN_POINT('Ctrl Pts',(24.4463055361467,-51.7668677377968,-2.65315836265128));
#598=CARTESIAN_POINT('Ctrl Pts',(24.4463055361467,-51.7668677377968,-2.65315836265128));
#599=CARTESIAN_POINT('Ctrl Pts',(24.4463055361467,-51.7668677377968,-2.65315836265128));
#600=CARTESIAN_POINT('',(24.4463055361467,-51.7668677377967,-2.65315836265128));
#601=CARTESIAN_POINT('',(24.8195106169036,-51.7607628838432,-2.5533448828091));
#602=CARTESIAN_POINT('Origin',(24.6195106169036,-51.7607628838433,-2.5533448828091));
#603=CARTESIAN_POINT('',(24.7927156976604,-51.7668677377967,-2.65315836265128));
#604=CARTESIAN_POINT('Origin',(24.6195106169036,-51.7607628838433,-2.5533448828091));
#605=CARTESIAN_POINT('',(24.8195106169036,-51.7168677377967,-2.56655582227283));
#606=CARTESIAN_POINT('Origin',(24.6195106169036,-51.7168677377967,-2.56655582227284));
#607=CARTESIAN_POINT('Origin',(24.6195106169036,-51.7168677377967,-2.56655582227284));
#608=CARTESIAN_POINT('Origin',(24.6195106169036,-52.0367003686887,-2.53646782323821));
#609=CARTESIAN_POINT('Origin',(24.6195106169036,-51.7372599291621,-2.55478238509868));
#610=CARTESIAN_POINT('',(24.8195106169036,-52.0367003686887,-2.53646782323821));
#611=CARTESIAN_POINT('Origin',(24.6195106169036,-51.7168677377967,-2.56655582227283));
#612=CARTESIAN_POINT('',(24.4463051457289,-48.373259165922,-4.61245840430831));
#613=CARTESIAN_POINT('',(24.8195106169036,-48.3232594870578,-4.5258564593611));
#614=CARTESIAN_POINT('Origin',(24.6195106169036,-48.3232595040352,-4.52585644955916));
#615=CARTESIAN_POINT('',(24.79271530724,-48.3732598421477,-4.61245957556559));
#616=CARTESIAN_POINT('Origin',(24.6195106169036,-48.2731583140243,-4.55478238509869));
#617=CARTESIAN_POINT('Origin',(24.6195106169036,-48.3232595040352,-4.52585644955916));
#618=CARTESIAN_POINT('',(24.8195106169036,-51.7168677377967,-2.56655582227283));
#619=CARTESIAN_POINT('Ctrl Pts',(24.79271530724,-48.3732598421477,-4.61245957556561));
#620=CARTESIAN_POINT('Ctrl Pts',(24.79271530724,-48.3732598421477,-4.61245957556561));
#621=CARTESIAN_POINT('Ctrl Pts',(24.79271530724,-48.3732598421477,-4.61245957556561));
#622=CARTESIAN_POINT('Ctrl Pts',(24.8766258377779,-48.3005918462579,-4.48659491460035));
#623=CARTESIAN_POINT('Ctrl Pts',(24.8766258377779,-48.2277766207299,-4.52863480466006));
#624=CARTESIAN_POINT('Ctrl Pts',(24.8766255532062,-48.2279239095651,-4.61271445577047));
#625=CARTESIAN_POINT('Ctrl Pts',(24.7480687369966,-48.2466553106804,-4.39317409459591));
#626=CARTESIAN_POINT('Ctrl Pts',(24.7480687369966,-48.1197946442665,-4.46641713449958));
#627=CARTESIAN_POINT('Ctrl Pts',(24.7480682412082,-48.1200512548813,-4.61290298954393));
#628=CARTESIAN_POINT('Ctrl Pts',(24.6195116362154,-48.192718775103,-4.29975327459147));
#629=CARTESIAN_POINT('Ctrl Pts',(24.6195116362154,-48.0118126678031,-4.40419946433911));
#630=CARTESIAN_POINT('Ctrl Pts',(24.6195109292102,-48.0121786001974,-4.61309152331738));
#631=CARTESIAN_POINT('Ctrl Pts',(24.490953693124,-48.2466548087673,-4.3931732252569));
#632=CARTESIAN_POINT('Ctrl Pts',(24.490953693124,-48.1197941423534,-4.46641626516057));
#633=CARTESIAN_POINT('Ctrl Pts',(24.4909531973355,-48.1200507529682,-4.61290212020491));
#634=CARTESIAN_POINT('Ctrl Pts',(24.3623957500325,-48.3005908424317,-4.48659317592233));
#635=CARTESIAN_POINT('Ctrl Pts',(24.3623957500325,-48.2277756169037,-4.52863306598204));
#636=CARTESIAN_POINT('Ctrl Pts',(24.3623954654609,-48.2279229057389,-4.61271271709244));
#637=CARTESIAN_POINT('Ctrl Pts',(24.4463051457289,-48.373259165922,-4.61245840430834));
#638=CARTESIAN_POINT('Ctrl Pts',(24.4463051457289,-48.373259165922,-4.61245840430834));
#639=CARTESIAN_POINT('Ctrl Pts',(24.4463051457289,-48.373259165922,-4.61245840430834));
#640=CARTESIAN_POINT('',(24.8195104210999,-48.2732592670186,-4.61263482540161));
#641=CARTESIAN_POINT('Origin',(24.6195104211014,-48.2732596574709,-4.61263416741187));
#642=CARTESIAN_POINT('Origin',(24.6195104211014,-48.2732596574709,-4.61263416741187));
#643=CARTESIAN_POINT('Origin',(24.6195104211014,-48.2732596574709,-4.61263416741191));
#644=CARTESIAN_POINT('',(24.4463010883678,-48.376490273518,-6.45477872413359));
#645=CARTESIAN_POINT('',(24.8195041856773,-48.2764866026074,-6.45495539214262));
#646=CARTESIAN_POINT('Origin',(24.6195041856795,-48.2764869926387,-6.45495449383828));
#647=CARTESIAN_POINT('',(24.7927112498114,-48.3764834048485,-6.45477990860785));
#648=CARTESIAN_POINT('Origin',(24.6195038478175,-48.2766618635098,-6.55477931637045));
#649=CARTESIAN_POINT('Origin',(24.6195041856795,-48.2764869926387,-6.45495449383828));
#650=CARTESIAN_POINT('',(24.8195104210999,-48.273259267053,-4.61263484500546));
#651=CARTESIAN_POINT('Ctrl Pts',(24.7927112498114,-48.3764834048485,-6.45477990860793));
#652=CARTESIAN_POINT('Ctrl Pts',(24.7927112498114,-48.3764834048485,-6.45477990860793));
#653=CARTESIAN_POINT('Ctrl Pts',(24.7927112498114,-48.3764834048485,-6.45477990860793));
#654=CARTESIAN_POINT('Ctrl Pts',(24.8766183302971,-48.2311456447154,-6.45503479200353));
#655=CARTESIAN_POINT('Ctrl Pts',(24.876617839261,-48.2313997956032,-6.60011651490014));
#656=CARTESIAN_POINT('Ctrl Pts',(24.8766207159662,-48.3764817410798,-6.6001165149001));
#657=CARTESIAN_POINT('Ctrl Pts',(24.7480586688304,-48.1232757900657,-6.455223320864));
#658=CARTESIAN_POINT('Ctrl Pts',(24.748057813334,-48.1237185786551,-6.70798864456773));
#659=CARTESIAN_POINT('Ctrl Pts',(24.7480628252081,-48.3764842901438,-6.70798864456767));
#660=CARTESIAN_POINT('Ctrl Pts',(24.6194990073637,-48.0154059354161,-6.45541184972447));
#661=CARTESIAN_POINT('Ctrl Pts',(24.619497787407,-48.016037361707,-6.81586077423533));
#662=CARTESIAN_POINT('Ctrl Pts',(24.61950493445,-48.3764868392078,-6.81586077423523));
#663=CARTESIAN_POINT('Ctrl Pts',(24.4909436250078,-48.123280888179,-6.45522244171499));
#664=CARTESIAN_POINT('Ctrl Pts',(24.4909427695114,-48.1237236767684,-6.70798776541872));
#665=CARTESIAN_POINT('Ctrl Pts',(24.4909477813855,-48.3764893882571,-6.70798776541866));
#666=CARTESIAN_POINT('Ctrl Pts',(24.3623882426518,-48.231155840942,-6.45503303370551));
#667=CARTESIAN_POINT('Ctrl Pts',(24.3623877516158,-48.2314099918298,-6.60011475660213));
#668=CARTESIAN_POINT('Ctrl Pts',(24.362390628321,-48.3764919373064,-6.60011475660209));
#669=CARTESIAN_POINT('Ctrl Pts',(24.4463010883678,-48.376490273518,-6.45477872413368));
#670=CARTESIAN_POINT('Ctrl Pts',(24.4463010883678,-48.376490273518,-6.45477872413368));
#671=CARTESIAN_POINT('Ctrl Pts',(24.4463010883678,-48.376490273518,-6.45477872413368));
#672=CARTESIAN_POINT('',(24.8195058270967,-48.3764826528506,-6.55477642501094));
#673=CARTESIAN_POINT('Origin',(24.6195058271613,-48.37648683919,-6.55477931637029));
#674=CARTESIAN_POINT('Origin',(24.6195058271613,-48.37648683919,-6.55477931637029));
#675=CARTESIAN_POINT('Ctrl Pts',(24.7195692807046,-51.5766618628411,-6.72798439711948));
#676=CARTESIAN_POINT('Ctrl Pts',(24.7195692807046,-51.5766618628411,-6.72798439711948));
#677=CARTESIAN_POINT('Ctrl Pts',(24.7195692807046,-51.5766618628411,-6.72798439711948));
#678=CARTESIAN_POINT('Ctrl Pts',(24.5742329613522,-51.5766647445901,-6.8118943602342));
#679=CARTESIAN_POINT('Ctrl Pts',(24.5742358430441,-51.7219981822272,-6.81189436023418));
#680=CARTESIAN_POINT('Ctrl Pts',(24.7195692807098,-51.721998182222,-6.81189436023419));
#681=CARTESIAN_POINT('Ctrl Pts',(24.4663603921325,-51.5766668835026,-6.68333683829765));
#682=CARTESIAN_POINT('Ctrl Pts',(24.4663654126945,-51.829870751472,-6.68333683829761));
#683=CARTESIAN_POINT('Ctrl Pts',(24.7195692807136,-51.829870751463,-6.68333683829763));
#684=CARTESIAN_POINT('Ctrl Pts',(24.3584878229128,-51.5766690224151,-6.55477931636109));
#685=CARTESIAN_POINT('Ctrl Pts',(24.3584949823448,-51.9377433207168,-6.55477931636104));
#686=CARTESIAN_POINT('Ctrl Pts',(24.7195692807174,-51.9377433207039,-6.55477931636106));
#687=CARTESIAN_POINT('Ctrl Pts',(24.4663603921325,-51.5766668835026,-6.42622179442454));
#688=CARTESIAN_POINT('Ctrl Pts',(24.4663654126945,-51.829870751472,-6.42622179442451));
#689=CARTESIAN_POINT('Ctrl Pts',(24.7195692807136,-51.8298707514629,-6.42622179442452));
#690=CARTESIAN_POINT('Ctrl Pts',(24.5742329613523,-51.5766647445901,-6.29766427248799));
#691=CARTESIAN_POINT('Ctrl Pts',(24.5742358430441,-51.7219981822271,-6.29766427248798));
#692=CARTESIAN_POINT('Ctrl Pts',(24.7195692807098,-51.721998182222,-6.29766427248798));
#693=CARTESIAN_POINT('Ctrl Pts',(24.7195692807046,-51.576661862841,-6.38157423560274));
#694=CARTESIAN_POINT('Ctrl Pts',(24.7195692807046,-51.576661862841,-6.38157423560274));
#695=CARTESIAN_POINT('Ctrl Pts',(24.7195692807046,-51.5766618628411,-6.38157423560274));
#696=CARTESIAN_POINT('',(24.7195692807046,-51.5766618628409,-6.38157423560274));
#697=CARTESIAN_POINT('',(24.7195692807046,-51.576661862841,-6.72798439711948));
#698=CARTESIAN_POINT('Origin',(24.6195692807268,-51.576663845655,-6.5547793163611));
#699=CARTESIAN_POINT('Origin',(24.719569280708,-51.6766618628385,-6.5547793163611));
#700=CARTESIAN_POINT('Origin',(24.6195058271613,-48.37648683919,-6.55477931637017));
#701=CARTESIAN_POINT('',(24.8195672978917,-51.476661862859,-6.55477642500216));
#702=CARTESIAN_POINT('Origin',(24.6195712635018,-51.6766618628386,-6.55477931636088));
#703=CARTESIAN_POINT('',(24.8195058271011,-48.3764828735615,-6.55477642501094));
#704=CARTESIAN_POINT('Origin',(24.6195712635018,-51.6766618628386,-6.55477931636088));
#705=CARTESIAN_POINT('Origin',(29.6195712634955,-51.6766618628255,-6.55477931637183));
#706=CARTESIAN_POINT('',(29.6195712634884,-51.4766618628464,-6.55477642501262));
#707=CARTESIAN_POINT('Origin',(29.6195712634955,-51.6766618628255,-6.55477931637183));
#708=CARTESIAN_POINT('Origin',(24.7195692807081,-51.6766618628384,-6.5547793163611));
#709=CARTESIAN_POINT('',(24.7195692807075,-51.4766618628593,-6.55477642500188));
#710=CARTESIAN_POINT('Origin',(27.0195377245916,-50.1572181169883,-2.05030067004483));
#711=CARTESIAN_POINT('',(0.,0.,0.));
#712=UNCERTAINTY_MEASURE_WITH_UNIT(LENGTH_MEASURE(0.01),#718,
'DISTANCE_ACCURACY_VALUE',
'Maximum model space distance between geometric entities at asserted c
onnectivities');
#713=UNCERTAINTY_MEASURE_WITH_UNIT(LENGTH_MEASURE(0.01),#718,
'DISTANCE_ACCURACY_VALUE',
'Maximum model space distance between geometric entities at asserted c
onnectivities');
#714=UNCERTAINTY_MEASURE_WITH_UNIT(LENGTH_MEASURE(0.01),#718,
'DISTANCE_ACCURACY_VALUE',
'Maximum model space distance between geometric entities at asserted c
onnectivities');
#715=(
GEOMETRIC_REPRESENTATION_CONTEXT(3)
GLOBAL_UNCERTAINTY_ASSIGNED_CONTEXT((#712))
GLOBAL_UNIT_ASSIGNED_CONTEXT((#718,#720,#721))
REPRESENTATION_CONTEXT('','3D')
);
#716=(
GEOMETRIC_REPRESENTATION_CONTEXT(3)
GLOBAL_UNCERTAINTY_ASSIGNED_CONTEXT((#713))
GLOBAL_UNIT_ASSIGNED_CONTEXT((#718,#720,#721))
REPRESENTATION_CONTEXT('','3D')
);
#717=(
GEOMETRIC_REPRESENTATION_CONTEXT(3)
GLOBAL_UNCERTAINTY_ASSIGNED_CONTEXT((#714))
GLOBAL_UNIT_ASSIGNED_CONTEXT((#718,#720,#721))
REPRESENTATION_CONTEXT('','3D')
);
#718=(
LENGTH_UNIT()
NAMED_UNIT(*)
SI_UNIT(.MILLI.,.METRE.)
);
#719=(
LENGTH_UNIT()
NAMED_UNIT(*)
SI_UNIT($,.METRE.)
);
#720=(
NAMED_UNIT(*)
PLANE_ANGLE_UNIT()
SI_UNIT($,.RADIAN.)
);
#721=(
NAMED_UNIT(*)
SI_UNIT($,.STERADIAN.)
SOLID_ANGLE_UNIT()
);
#722=SHAPE_DEFINITION_REPRESENTATION(#724,#727);
#723=SHAPE_DEFINITION_REPRESENTATION(#725,#728);
#724=PRODUCT_DEFINITION_SHAPE('',$,#730);
#725=PRODUCT_DEFINITION_SHAPE('',$,#731);
#726=PRODUCT_DEFINITION_SHAPE($,$,#14);
#727=SHAPE_REPRESENTATION('',(#276,#311),#715);
#728=SHAPE_REPRESENTATION('',(#277),#716);
#729=PRODUCT_DEFINITION_CONTEXT('part definition',#737,'design');
#730=PRODUCT_DEFINITION('2026-08-30-23-59-07-662','RackGear',#732,#729);
#731=PRODUCT_DEFINITION('2026-09-05-19-54-56-524',
'\X2\30B330F330DD30FC30CD30F330C8\X0\4',#733,#729);
#732=PRODUCT_DEFINITION_FORMATION('',$,#739);
#733=PRODUCT_DEFINITION_FORMATION('',$,#740);
#734=PRODUCT_RELATED_PRODUCT_CATEGORY('RackGear','RackGear',(#739));
#735=PRODUCT_RELATED_PRODUCT_CATEGORY('\X2\30B330F330DD30FC30CD30F330C8\X0\4',
'\X2\30B330F330DD30FC30CD30F330C8\X0\4',(#740));
#736=APPLICATION_PROTOCOL_DEFINITION('international standard',
'automotive_design',2009,#737);
#737=APPLICATION_CONTEXT(
'Core Data for Automotive Mechanical Design Process');
#738=PRODUCT_CONTEXT('part definition',#737,'mechanical');
#739=PRODUCT('2026-08-30-23-59-07-662','RackGear',$,(#738));
#740=PRODUCT('2026-09-05-19-54-56-524','\X2\30B330F330DD30FC30CD30F330C8\X0\4',
$,(#738));
#741=PRESENTATION_STYLE_ASSIGNMENT((#742));
#742=SURFACE_STYLE_USAGE(.BOTH.,#743);
#743=SURFACE_SIDE_STYLE('',(#744));
#744=SURFACE_STYLE_FILL_AREA(#745);
#745=FILL_AREA_STYLE('\X2\92FC\X0\ - \X2\30B530C630F3\X0\',(#746));
#746=FILL_AREA_STYLE_COLOUR('\X2\92FC\X0\ - \X2\30B530C630F3\X0\',#747);
#747=COLOUR_RGB('\X2\92FC\X0\ - \X2\30B530C630F3\X0\',0.627450980392157,
0.627450980392157,0.627450980392157);
ENDSEC;
END-ISO-10303-21;
