<?xml version="1.0" encoding="utf-8"?>
<!-- Generator: Fusion 360, Shaper Origin Export Add-In, Version 1.9.0  -->
<svg xmlns="http://www.w3.org/2000/svg" xmlns:xlink="http://www.w3.org/1999/xlink" xmlns:shaper="http://www.shapertools.com/namespaces/shaper" shaper:fusionaddin="version:1.9.0" width="1.9213487cm" height="0.8876525cm" version="1.1" x="0cm" y="0cm" viewBox="0 0 1.9213487 0.8876525" enable-background="new 0 0 1.9213487 0.8876525" xml:space="preserve"><path d="M-0.9660162,-0.1665647 L-0.9660162,-0.2465647 0.2147693,-0.2465647 0.2147693,-0.2465647 0.2216049,-0.2468556 0.2285704,-0.2477352 0.235669,-0.249214 0.2429034,-0.2513022 0.2502766,-0.2540104 0.2577916,-0.2573489 0.2654514,-0.2613282 0.2732589,-0.2659586 0.281217,-0.2712506 0.2893288,-0.2772145 0.2975971,-0.2838609 0.3060249,-0.2912 0.3146151,-0.2992422 0.3233708,-0.3079981 0.332234,-0.3174616 0.3411559,-0.3275633 0.3593172,-0.3493439 0.3781375,-0.3726651 0.3978996,-0.3968521 0.4188865,-0.4212299 0.441381,-0.4451239 0.453282,-0.4566785 0.465666,-0.4678591 0.4785684,-0.4785813 0.4920744,-0.4887179 0.5063462,-0.4980283 0.5213369,-0.5063972 0.5369826,-0.5137213 0.5532197,-0.5198975 0.5699845,-0.5248225 0.5872135,-0.5283932 0.6048429,-0.5305063 0.622809,-0.5310585 0.6410482,-0.5299467 0.6594893,-0.527077 0.6779695,-0.522513 0.6963936,-0.5163336 0.7146964,-0.5085925 0.7328126,-0.4993431 0.7506771,-0.488639 0.7682246,-0.4765337 0.78539,-0.4630808 0.802108,-0.4483337 0.8183135,-0.4323461 0.8339412,-0.4151715 0.848926,-0.3968634 0.8632026,-0.3774753 0.8767059,-0.3570608 0.8893706,-0.3356734 0.9011315,-0.3133667 0.9119236,-0.2901942 0.9216814,-0.2662094 0.9302928,-0.2414908 0.9376371,-0.2161657 0.9437122,-0.1903347 0.9485187,-0.1640974 0.9520572,-0.1375532 0.9543282,-0.1108017 0.9553325,-0.0839424 0.9550706,-0.057075 0.9535431,-0.0302989 0.9507507,-0.0037136 0.946694,0.0225812 0.9413735,0.048486 0.9347899,0.0739014 0.9269438,0.0987277 0.9178657,0.1228608 0.9076927,0.1461985 0.8964936,0.1686722 0.8843282,0.1902152 0.8712565,0.2107611 0.8573384,0.2302434 0.8426338,0.2485957 0.8272025,0.2657514 0.8111046,0.281644 0.7943999,0.296207 0.7771483,0.309374 0.7594098,0.3210784 0.7412442,0.3312539 0.7227114,0.3398338 0.703878,0.3467317 0.6848615,0.3517959 0.665767,0.3550614 0.6466933,0.356594 0.6277393,0.3564597 0.6090037,0.3547244 0.5905852,0.3514538 0.5725828,0.346714 0.5550951,0.3405708 0.5382209,0.33309 0.5220575,0.3243406 0.5065849,0.314564 0.4917375,0.3039542 0.4774865,0.2926135 0.463803,0.2806442 0.4506582,0.2681487 0.4380232,0.2552292 0.4141672,0.2285277 0.3920039,0.2013582 0.3713026,0.1745392 0.3518322,0.1488893 0.3424864,0.1367586 0.333362,0.1252272 0.3244606,0.1144127 0.3157928,0.1043533 0.3073526,0.095045 0.299134,0.0864841 0.2911309,0.0786668 0.2833372,0.0715894 0.2757471,0.0652481 0.2683545,0.0596391 0.2611532,0.0547585 0.2541375,0.0506027 0.2473011,0.0471678 0.2406381,0.0444501 0.2341425,0.0424458 0.2277436,0.041081 0.2147693,0.04 -0.3593266,0.04 -0.3593266,0.04 -0.3632673,0.0401827 -0.3677274,0.0407374 -0.3726985,0.0416741 -0.3781719,0.0430027 -0.3841392,0.0447333 -0.3905918,0.0468758 -0.3975213,0.0494403 -0.4049192,0.0524366 -0.4127769,0.0558748 -0.421086,0.0597649 -0.4298379,0.0641168 -0.4390241,0.0689406 -0.4486361,0.0742461 -0.4586654,0.0800435 -0.4691035,0.0863426 -0.479942,0.0931535 -0.4911722,0.1004861 -0.5027851,0.1083481 -0.5270701,0.1254345 -0.5526851,0.1441866 -0.5795537,0.1645153 -0.6075999,0.1863311 -0.6367475,0.2095449 -0.6669202,0.2340674 -0.6980419,0.2598092 -0.7492713,0.1983636 -0.7492713,0.1983636 -0.7176515,0.1722115 -0.6869426,0.1472588 -0.657174,0.123559 -0.628375,0.1011652 -0.6005748,0.0801307 -0.5738459,0.0605156 -0.5483715,0.0424147 -0.5240765,0.0259056 -0.5008538,0.0110622 -0.4785964,-0.0020418 -0.4571971,-0.0133324 -0.4365489,-0.0227358 -0.4165449,-0.0301781 -0.3970778,-0.0355854 -0.3780408,-0.038884 -0.3593266,-0.04 0.2147693,-0.04 0.2147693,-0.04 0.2279125,-0.0394137 0.2408343,-0.0376914 0.2535271,-0.0348881 0.2659833,-0.0310586 0.2781952,-0.026258 0.2901552,-0.0205411 0.3018556,-0.0139629 0.3132888,-0.0065783 0.3244472,0.0015577 0.3353231,0.0103903 0.3459089,0.0198644 0.3561969,0.0299252 0.3761985,0.0517258 0.3959589,0.0754515 0.4156377,0.1004488 0.4353868,0.1260607 0.4553583,0.1516299 0.4757043,0.1764993 0.4965768,0.2000118 0.5072581,0.2110539 0.518128,0.2215102 0.5291059,0.2312329 0.5401093,0.2401109 0.5511527,0.2481162 0.5622507,0.2552208 0.573418,0.2613969 0.5846691,0.2666163 0.5960186,0.2708512 0.607481,0.2740737 0.619071,0.2762556 0.6308032,0.2773691 0.6426921,0.2773863 0.6547523,0.2762791 0.6669984,0.2740195 0.6794449,0.2705797 0.6921087,0.2659012 0.7049729,0.259842 0.7179551,0.252423 0.7309686,0.2436852 0.7439264,0.2336696 0.7567419,0.2224171 0.7693281,0.2099688 0.7815984,0.1963657 0.7934659,0.1816486 0.8048437,0.1658586 0.8156452,0.1490366 0.8257834,0.1312237 0.8351716,0.1124609 0.8437076,0.0928109 0.8512663,0.0724339 0.8578252,0.0514298 0.8633722,0.0298883 0.8678955,0.0078991 0.8713832,-0.0144483 0.8738232,-0.0370643 0.8752036,-0.0598591 0.8755125,-0.0827433 0.874738,-0.1056272 0.8728681,-0.1284212 0.8698908,-0.1510356 0.8657943,-0.1733809 0.8605666,-0.1953674 0.8542039,-0.2168979 0.8467888,-0.2378371 0.8384142,-0.2581155 0.8291656,-0.2776773 0.8191283,-0.2964665 0.8083878,-0.3144271 0.7970295,-0.3315032 0.7851388,-0.3476388 0.7728012,-0.3627779 0.7601019,-0.3768647 0.7471266,-0.3898431 0.7339606,-0.4016572 0.7206892,-0.4122511 0.707398,-0.4215688 0.6941723,-0.4295543 0.6811379,-0.4361851 0.668492,-0.4415784 0.6562263,-0.4457813 0.6443133,-0.4488297 0.6327253,-0.4507595 0.6214348,-0.4516066 0.6104139,-0.4514067 0.5996352,-0.4501958 0.5890708,-0.4480097 0.5786933,-0.4448842 0.568475,-0.4408551 0.5583881,-0.4359584 0.5484016,-0.4301637 0.5384908,-0.4234129 0.528644,-0.4157858 0.5188497,-0.407365 0.5090965,-0.3982328 0.4993728,-0.3884719 0.4799685,-0.3673936 0.4605451,-0.3447901 0.4410108,-0.3213212 0.4012431,-0.2744274 0.3807835,-0.2523219 0.3594872,-0.2318944 0.3485056,-0.2224364 0.3373092,-0.2135468 0.3259037,-0.2052739 0.3142947,-0.1976663 0.3024877,-0.1907724 0.2904885,-0.1846405 0.2783025,-0.1793191 0.2659355,-0.1748567 0.2533931,-0.1713016 0.2406808,-0.1687023 0.2278043,-0.1671072 0.2147693,-0.1665647 -0.9660162,-0.1665647z" transform="matrix(1,0,0,-1,0.9660162,0.356594)" fill="rgb(0,0,0)" shaper:cutDepth="0.1cm" stroke-linecap="round" stroke-linejoin="round" /></svg>